# Blender v2.82 (sub 7) OBJ File: 'horse.blend'
# www.blender.org
mtllib book3.mtl
o Cube.005
v -6.399687 2.328979 0.241647
v -6.445142 2.575579 0.678002
v -6.421601 2.251355 0.280954
v -6.472152 2.479907 0.726448
v -6.049347 2.267236 0.313057
v -6.053542 2.505684 0.758296
v -6.071367 2.189239 0.352553
v -6.078790 2.409697 0.807103
v -6.423990 2.242894 0.285238
v -6.396980 2.338566 0.236792
v -6.030628 2.172684 0.365893
v -6.005380 2.268671 0.317086
v -6.423933 2.262830 0.302315
v -6.402019 2.340454 0.263008
v -6.040861 2.187566 0.366258
v -6.018764 2.265550 0.326778
v -6.399312 2.350041 0.258154
v -6.426322 2.254369 0.306599
v -6.447849 2.565992 0.682857
v -6.469763 2.488368 0.722164
v -6.384205 2.330382 0.252060
v -6.406172 2.252572 0.291461
v -6.056036 2.496846 0.762771
v -6.076295 2.418535 0.802628
v -6.008756 2.256712 0.323142
v -6.009563 2.244294 0.329724
v -6.009074 2.231645 0.336572
v -6.011226 2.219468 0.342879
v -6.015834 2.207729 0.348682
v -6.023025 2.196450 0.353956
v -6.027252 2.184644 0.359837
v -6.047651 2.255972 0.321017
v -6.048160 2.245459 0.327478
v -6.049251 2.235144 0.333544
v -6.051825 2.226027 0.338161
v -6.054756 2.215644 0.343418
v -6.059170 2.206460 0.347226
v -6.064166 2.197474 0.350639
v -6.072168 2.193130 0.359852
v -6.050155 2.271105 0.320368
v -6.386402 2.322601 0.256000
v -6.388598 2.314820 0.259940
v -6.390795 2.307039 0.263880
v -6.392992 2.299258 0.267821
v -6.395189 2.291477 0.271761
v -6.397386 2.283696 0.275701
v -6.399582 2.275915 0.279641
v -6.401779 2.268134 0.283581
v -6.403975 2.260353 0.287521
v -6.038790 2.195390 0.362282
v -6.032342 2.202431 0.359203
v -6.025890 2.209472 0.356125
v -6.021784 2.216932 0.352565
v -6.018987 2.224626 0.348738
v -6.017381 2.232532 0.344666
v -6.017047 2.240665 0.340334
v -6.018997 2.249206 0.335533
v -6.021079 2.257770 0.330705
v -6.049143 2.262734 0.324975
v -6.049633 2.254631 0.329274
v -6.050580 2.246609 0.333480
v -6.051741 2.238626 0.337642
v -6.053035 2.230667 0.341776
v -6.056144 2.223032 0.345538
v -6.059385 2.215420 0.349274
v -6.062840 2.207846 0.352965
v -6.066753 2.200354 0.356562
v -6.386281 2.322003 0.254888
v -6.388477 2.314222 0.258828
v -6.049022 2.262136 0.323862
v -6.049511 2.254033 0.328162
v -6.388598 2.314820 0.259940
v -6.390795 2.307039 0.263880
v -6.049633 2.254631 0.329274
v -6.050580 2.246609 0.333480
v -6.390795 2.307039 0.263880
v -6.392992 2.299258 0.267821
v -6.050580 2.246609 0.333480
v -6.051741 2.238626 0.337642
v -6.390610 2.306129 0.262186
v -6.392807 2.298348 0.266126
v -6.050395 2.245699 0.331786
v -6.051556 2.237716 0.335947
v -6.393058 2.299581 0.268422
v -6.395255 2.291800 0.272363
v -6.051807 2.238950 0.338243
v -6.053101 2.230990 0.342378
v -6.397257 2.283062 0.274522
v -6.399454 2.275281 0.278462
v -6.056015 2.222398 0.344359
v -6.059256 2.214786 0.348095
v -6.399646 2.276227 0.280221
v -6.401842 2.268446 0.284161
v -6.059448 2.215731 0.349854
v -6.062904 2.208158 0.353545
v -6.401779 2.268134 0.283581
v -6.403975 2.260353 0.287521
v -6.062840 2.207846 0.352965
v -6.066753 2.200354 0.356562
v -6.403784 2.259409 0.285764
v -6.405981 2.251628 0.289704
v -6.071977 2.192186 0.358095
v -6.066562 2.199410 0.354805
v -6.078370 2.425732 0.798535
v -6.074154 2.431807 0.795731
v -6.068380 2.437604 0.793248
v -6.064611 2.443758 0.790353
v -6.061597 2.450048 0.787303
v -6.059387 2.456481 0.784089
v -6.057927 2.463047 0.780721
v -6.057268 2.469757 0.777189
v -6.057352 2.476599 0.773504
v -6.059478 2.483806 0.769400
v -6.060561 2.490826 0.765511
v -6.029221 2.191276 0.356059
v -6.023025 2.196450 0.353956
v -6.018919 2.201999 0.351423
v -6.015834 2.207729 0.348682
v -6.013230 2.213545 0.345842
v -6.009854 2.225504 0.339786
v -6.009074 2.231645 0.336572
v -6.008767 2.237871 0.333261
v -6.009563 2.244294 0.329724
v -6.012952 2.251180 0.325655
vt 0.500000 0.250000
vt 0.375000 0.500000
vt 0.625000 0.500000
vt 0.375000 0.531250
vt 0.625000 0.562500
vt 0.625000 0.750000
vt 0.500000 1.000000
vt 0.625000 1.000000
vt 0.625000 0.588542
vt 0.875000 0.562500
vt 0.625000 0.583333
vt 0.148093 0.523093
vt 0.148093 0.523093
vt 0.351907 0.523093
vt 0.125000 0.500000
vt 0.351907 0.548570
vt 0.351907 0.726907
vt 0.148093 0.726907
vt 0.125000 0.750000
vt 0.000000 0.000000
vt 0.000000 0.000000
vt 0.000000 0.000000
vt 0.148093 0.726907
vt 0.375000 1.000000
vt 0.625000 0.250000
vt 0.875000 0.625000
vt 0.875000 0.750000
vt 0.375000 0.750000
vt 0.375000 0.718750
vt 0.351907 0.701430
vt 0.375000 0.687500
vt 0.351907 0.675953
vt 0.375000 0.656250
vt 0.351907 0.650477
vt 0.375000 0.625000
vt 0.351907 0.625000
vt 0.375000 0.593750
vt 0.351907 0.574047
vt 0.351907 0.599523
vt 0.375000 0.562500
vt 0.000000 0.000000
vt 0.000000 0.000000
vt 0.000000 0.000000
vt 0.000000 0.000000
vt 0.000000 0.000000
vt 0.000000 0.000000
vt 0.000000 0.000000
vt 0.000000 0.000000
vt 0.000000 0.000000
vt 0.000000 0.000000
vt 0.000000 0.000000
vt 0.000000 0.000000
vt 0.000000 0.000000
vt 0.000000 0.000000
vt 0.000000 0.000000
vt 0.000000 0.000000
vt 0.000000 0.000000
vt 0.000000 0.000000
vt 0.000000 0.000000
vt 0.000000 0.000000
vt 0.000000 0.000000
vt 0.000000 0.000000
vt 0.000000 0.000000
vt 0.000000 0.000000
vt 0.000000 0.000000
vt 0.000000 0.000000
vt 0.000000 0.000000
vt 0.000000 0.000000
vt 0.000000 0.000000
vt 0.000000 0.000000
vt 0.000000 0.000000
vt 0.000000 0.000000
vt 0.000000 0.000000
vt 0.000000 0.000000
vt 0.000000 0.000000
vt 0.000000 0.000000
vt 0.000000 0.000000
vt 0.000000 0.000000
vt 0.000000 0.000000
vt 0.000000 0.000000
vt 0.000000 0.000000
vt 0.000000 0.000000
vt 0.000000 0.000000
vt 0.000000 0.000000
vt 0.000000 0.000000
vt 0.000000 0.000000
vt 0.000000 0.000000
vt 0.000000 0.000000
vt 0.000000 0.000000
vt 0.000000 0.000000
vt 0.000000 0.000000
vt 0.000000 0.000000
vt 0.000000 0.000000
vt 0.000000 0.000000
vt 0.000000 0.000000
vt 0.000000 0.000000
vt 0.000000 0.000000
vt 0.000000 0.000000
vt 0.000000 0.000000
vt 0.000000 0.000000
vt 0.000000 0.000000
vt 0.000000 0.000000
vt 0.000000 0.000000
vt 0.000000 0.000000
vt 0.000000 0.000000
vt 0.000000 0.000000
vt 0.000000 0.000000
vt 0.625000 0.625000
vt 0.625000 0.567708
vt 0.625000 0.619792
vt 0.375000 0.703125
vt 0.625000 0.614583
vt 0.375000 0.687500
vt 0.625000 0.609375
vt 0.375000 0.671875
vt 0.625000 0.604167
vt 0.375000 0.656250
vt 0.625000 0.598958
vt 0.375000 0.640625
vt 0.625000 0.593750
vt 0.375000 0.609375
vt 0.375000 0.593750
vt 0.625000 0.578125
vt 0.375000 0.578125
vt 0.625000 0.572917
vt 0.375000 0.562500
vt 0.375000 0.546875
vt 0.375000 0.250000
vt 0.875000 0.500000
vt 0.000000 0.000000
vn -0.2442 -0.8651 0.4381
vn 0.9650 -0.1723 0.1979
vn 0.2442 0.8651 -0.4381
vn -0.0957 0.4711 0.8769
vn -0.9650 0.1722 -0.1979
vn 0.0957 -0.4711 -0.8769
vn 0.1212 -0.3240 -0.9382
vn -0.9649 0.1724 -0.1979
vn 0.0570 -0.4705 -0.8806
vn 0.0369 -0.4747 -0.8794
vn 0.0264 -0.4634 -0.8858
vn 0.0305 -0.4525 -0.8912
vn 0.0425 -0.4000 -0.9155
vn 0.0646 -0.3855 -0.9204
vn -0.1240 -0.9923 0.0000
vn 0.0957 -0.4710 -0.8769
vn 0.8205 -0.4615 0.3374
vn 0.0000 0.0000 1.0000
vn 0.2436 0.8653 -0.4380
vn -0.9651 0.1717 -0.1979
vn -0.2433 -0.8651 0.4387
vn -0.2434 -0.8652 0.4383
vn 0.9896 0.1392 0.0356
vn -0.9823 -0.1662 -0.0863
vn -0.9862 -0.1641 -0.0221
vn -0.9297 -0.0787 -0.3598
vn -0.8870 -0.1053 -0.4495
vn -0.8519 0.2158 -0.4771
vn 0.9940 -0.0016 0.1094
vn 0.2432 0.8653 -0.4384
vn -0.9649 0.1729 -0.1976
vn -0.9650 0.1722 -0.1980
vn 0.2434 0.8653 -0.4382
vn 0.9871 -0.0683 0.1445
vn -0.2434 -0.8653 0.4383
vn 0.9648 -0.1731 0.1980
vn -0.9850 0.0824 -0.1514
vn 0.2434 0.8653 -0.4383
vn 0.2435 0.8653 -0.4381
vn 0.9291 -0.2738 0.2485
vn -0.2436 -0.8653 0.4382
vn 0.9649 -0.1728 0.1979
vn -0.2436 -0.8653 0.4380
vn -0.9204 0.2934 -0.2584
vn -0.2437 -0.8653 0.4380
vn -0.9650 0.1722 -0.1978
vn 0.2437 0.8652 -0.4383
vn 0.9650 -0.1722 0.1979
vn 0.9649 0.2607 -0.0308
vn 0.8195 -0.4612 0.3401
vn 0.9865 0.1624 0.0183
vn 0.9638 0.2644 -0.0347
vn 0.9953 0.0552 0.0799
vn 0.9916 -0.0314 0.1254
vn 0.9763 -0.1273 0.1750
vn 0.9511 -0.2165 0.2203
vn 0.9133 -0.3087 0.2658
vn 0.8693 -0.3890 0.3048
vn 0.7311 -0.5635 0.3847
vn 0.8407 -0.4342 0.3235
vn -0.0957 0.4710 0.8769
vn -0.9650 0.1723 -0.1979
vn -0.9650 0.1721 -0.1979
vn 0.0556 -0.5706 -0.8193
vn 0.0337 -0.5245 -0.8508
vn 0.0206 -0.5084 -0.8609
vn 0.0292 -0.4581 -0.8884
vn 0.0271 -0.4577 -0.8887
vn 0.0431 -0.4456 -0.8942
vn 0.0598 -0.4621 -0.8848
vn 0.2437 0.8651 -0.4383
vn -0.9649 0.1728 -0.1979
vn -0.2435 -0.8654 0.4379
vn -0.2433 -0.8653 0.4383
vn -0.9628 -0.1061 -0.2483
vn -0.9673 -0.0709 -0.2436
vn -0.9194 0.0630 -0.3883
vn -0.9290 -0.1097 -0.3536
vn -0.8842 -0.0940 -0.4575
vn -0.8778 0.1304 -0.4609
vn -0.8602 -0.0154 -0.5097
vn -0.7847 0.0303 -0.6191
vn -0.7810 0.1212 -0.6127
vn -0.6930 0.4813 -0.5367
vn -0.7944 0.2278 -0.5631
vn -0.8206 0.4620 -0.3364
vn -0.8257 0.1068 -0.5539
vn 0.9940 -0.0026 0.1093
vn 0.2433 0.8652 -0.4384
vn -0.9650 0.1721 -0.1977
vn -0.9650 0.1721 -0.1978
vn 0.2434 0.8654 -0.4381
vn 0.9872 -0.0682 0.1445
vn -0.2434 -0.8653 0.4381
vn 0.9651 -0.1713 0.1980
vn -0.9852 0.0802 -0.1515
vn 0.2435 0.8651 -0.4385
vn 0.2435 0.8653 -0.4382
vn 0.9292 -0.2735 0.2485
vn -0.2436 -0.8652 0.4383
vn 0.9651 -0.1714 0.1980
vn -0.2435 -0.8650 0.4386
vn -0.9203 0.2935 -0.2585
vn -0.2437 -0.8652 0.4383
vn -0.9649 0.1726 -0.1978
vn 0.2437 0.8653 -0.4380
vn 0.9632 0.2664 -0.0342
vn 0.8170 -0.4646 0.3415
vn 0.9157 0.3873 -0.1071
vn 0.9895 0.1409 0.0328
vn 0.9944 0.0067 0.1051
vn 0.9891 -0.0539 0.1369
vn 0.9755 -0.1311 0.1769
vn 0.9523 -0.2131 0.2184
vn 0.9228 -0.2884 0.2555
vn 0.8943 -0.3460 0.2836
vn 0.8240 -0.4565 0.3357
vn 0.6626 -0.6264 0.4105
usemtl Material.003
s off
f 18/1/1 11/2/1 8/3/1
f 11/2/2 31/4/2 24/5/2
f 6/6/3 17/7/3 2/8/3
f 108/9/4 20/10/4 107/11/4
f 18/1/5 13/12/5 3/13/5
f 7/14/6 11/2/6 9/15/6
f 7/14/7 38/16/7 31/4/7
f 5/17/6 1/18/6 10/19/6
f 40/20/6 59/21/6 41/22/6
f 14/23/5 17/7/5 10/24/5
f 13/12/8 18/1/8 4/25/8
f 19/26/5 2/27/5 17/7/5
f 5/17/6 12/28/6 25/29/6
f 32/30/9 25/29/9 26/31/9
f 33/32/10 26/31/10 27/33/10
f 34/34/11 27/33/11 28/35/11
f 35/36/12 28/35/12 29/37/12
f 37/38/13 36/39/13 29/37/13
f 38/16/14 37/38/14 30/40/14
f 35/36/15 36/39/15 34/34/15
f 16/41/6 58/42/6 59/21/6
f 15/43/6 39/44/6 67/45/6
f 50/46/16 67/45/16 66/47/16
f 51/48/6 66/47/6 65/49/6
f 52/50/6 65/49/6 64/51/6
f 53/52/16 64/51/16 63/53/16
f 55/54/16 54/55/16 63/53/16
f 56/56/6 55/54/6 62/57/6
f 57/58/6 56/56/6 61/59/6
f 58/42/16 57/58/16 60/60/16
f 67/45/17 39/44/17 102/61/17
f 48/62/18 96/63/18 97/64/18
f 66/47/19 48/62/19 93/65/19
f 47/66/20 46/67/20 88/68/20
f 64/51/6 46/67/6 45/69/6
f 44/70/21 62/57/21 86/71/21
f 62/57/18 79/72/18 78/73/18
f 60/60/18 74/74/18 72/75/18
f 60/60/22 42/76/22 69/77/22
f 40/20/23 59/21/23 5/78/23
f 40/20/24 32/79/24 59/21/24
f 32/79/25 40/20/25 5/78/25
f 60/60/26 33/32/26 61/59/26
f 34/34/27 62/57/27 61/59/27
f 66/47/28 38/16/28 67/45/28
f 70/80/6 71/81/6 69/77/6
f 59/21/29 60/60/29 71/81/29
f 41/22/30 59/21/30 70/80/30
f 42/76/31 41/22/31 68/82/31
f 74/74/6 75/83/6 73/84/6
f 42/76/18 72/75/18 73/84/18
f 61/59/18 75/83/18 74/74/18
f 43/85/18 73/84/18 75/83/18
f 77/86/32 76/87/32 80/88/32
f 44/70/18 77/86/18 79/72/18
f 61/59/18 78/73/18 76/87/18
f 43/85/18 76/87/18 77/86/18
f 82/89/6 83/90/6 81/91/6
f 76/87/33 78/73/33 82/89/33
f 78/73/34 79/72/34 83/90/34
f 79/72/35 77/86/35 81/91/35
f 86/71/16 87/92/16 85/93/16
f 45/69/36 44/70/36 84/94/36
f 62/57/37 63/53/37 87/92/37
f 63/53/38 45/69/38 85/93/38
f 91/95/6 89/96/6 88/68/6
f 46/67/39 64/51/39 90/97/39
f 64/51/40 65/49/40 91/95/40
f 65/49/41 47/66/41 89/96/41
f 95/98/6 93/65/6 92/99/6
f 48/62/42 47/66/42 92/99/42
f 47/66/43 65/49/43 94/100/43
f 65/49/44 66/47/44 95/98/44
f 99/101/16 97/64/16 96/63/16
f 67/45/18 99/101/18 98/102/18
f 66/47/18 98/102/18 96/63/18
f 49/103/18 97/64/18 99/101/18
f 102/61/6 101/104/6 100/105/6
f 39/44/45 22/106/45 101/104/45
f 22/106/46 49/103/46 100/105/46
f 49/103/47 67/45/47 103/107/47
f 23/108/48 25/29/48 12/28/48
f 104/109/49 24/5/49 31/4/49
f 25/29/50 23/108/50 114/110/50
f 124/111/51 114/110/51 113/112/51
f 123/113/52 113/112/52 112/114/52
f 122/115/53 112/114/53 111/116/53
f 121/117/54 111/116/54 110/118/54
f 120/119/55 110/118/55 109/120/55
f 109/120/56 108/9/56 119/121/56
f 108/9/57 107/11/57 118/122/57
f 107/11/58 106/123/58 117/124/58
f 106/123/59 105/125/59 116/126/59
f 105/125/60 104/109/60 115/127/60
f 11/2/1 18/1/1 9/128/1
f 18/1/1 8/3/1 4/25/1
f 11/2/48 24/5/48 8/3/48
f 10/24/3 17/7/3 12/28/3
f 12/28/3 17/7/3 6/6/3
f 24/5/4 20/10/4 8/3/4
f 8/3/4 20/10/4 4/129/4
f 20/10/4 109/120/4 19/26/4
f 19/26/4 23/108/4 2/27/4
f 23/108/4 6/6/4 2/27/4
f 104/109/61 20/10/61 24/5/61
f 114/110/61 23/108/61 19/26/61
f 113/112/61 19/26/61 112/114/61
f 112/114/4 19/26/4 111/116/4
f 19/26/4 113/112/4 114/110/4
f 111/116/4 19/26/4 110/118/4
f 109/120/61 110/118/61 19/26/61
f 105/125/61 20/10/61 104/109/61
f 107/11/61 20/10/61 106/123/61
f 106/123/4 20/10/4 105/125/4
f 109/120/61 20/10/61 108/9/61
f 18/1/62 3/13/62 9/15/62
f 7/14/6 9/15/6 3/13/6
f 7/14/6 31/4/6 11/2/6
f 5/17/6 10/19/6 12/28/6
f 40/20/16 41/22/16 21/130/16
f 14/23/46 10/24/46 1/18/46
f 13/12/63 4/25/63 20/10/63
f 19/26/5 17/7/5 14/23/5
f 5/17/64 25/29/64 32/30/64
f 32/30/65 26/31/65 33/32/65
f 33/32/66 27/33/66 34/34/66
f 34/34/67 28/35/67 35/36/67
f 35/36/68 29/37/68 36/39/68
f 37/38/69 29/37/69 30/40/69
f 38/16/70 30/40/70 31/4/70
f 16/41/6 59/21/6 40/20/6
f 15/43/6 67/45/6 50/46/6
f 50/46/6 66/47/6 51/48/6
f 51/48/16 65/49/16 52/50/16
f 52/50/6 64/51/6 53/52/6
f 53/52/6 63/53/6 54/55/6
f 55/54/16 63/53/16 62/57/16
f 56/56/16 62/57/16 61/59/16
f 57/58/6 61/59/6 60/60/6
f 58/42/16 60/60/16 59/21/16
f 67/45/17 102/61/17 103/107/17
f 48/62/18 97/64/18 49/103/18
f 66/47/71 93/65/71 95/98/71
f 47/66/72 88/68/72 89/96/72
f 64/51/6 45/69/6 63/53/6
f 44/70/73 86/71/73 84/94/73
f 62/57/18 78/73/18 61/59/18
f 60/60/18 72/75/18 42/76/18
f 60/60/74 69/77/74 71/81/74
f 33/32/75 60/60/75 32/79/75
f 32/79/76 60/60/76 59/21/76
f 63/53/77 34/34/77 35/36/77
f 34/34/78 61/59/78 33/32/78
f 62/57/79 34/34/79 63/53/79
f 35/36/80 64/51/80 63/53/80
f 35/36/81 36/39/81 64/51/81
f 64/51/82 36/39/82 65/49/82
f 37/38/83 65/49/83 36/39/83
f 7/14/84 67/45/84 38/16/84
f 38/16/85 66/47/85 37/38/85
f 67/45/86 7/14/86 39/44/86
f 65/49/87 37/38/87 66/47/87
f 70/80/16 69/77/16 68/82/16
f 59/21/88 71/81/88 70/80/88
f 41/22/89 70/80/89 68/82/89
f 42/76/90 68/82/90 69/77/90
f 74/74/6 73/84/6 72/75/6
f 42/76/18 73/84/18 43/85/18
f 61/59/18 74/74/18 60/60/18
f 43/85/18 75/83/18 61/59/18
f 77/86/91 80/88/91 81/91/91
f 44/70/18 79/72/18 62/57/18
f 61/59/18 76/87/18 43/85/18
f 43/85/18 77/86/18 44/70/18
f 82/89/16 81/91/16 80/88/16
f 76/87/92 82/89/92 80/88/92
f 78/73/93 83/90/93 82/89/93
f 79/72/94 81/91/94 83/90/94
f 86/71/6 85/93/6 84/94/6
f 45/69/95 84/94/95 85/93/95
f 62/57/96 87/92/96 86/71/96
f 63/53/97 85/93/97 87/92/97
f 91/95/16 88/68/16 90/97/16
f 46/67/98 90/97/98 88/68/98
f 64/51/99 91/95/99 90/97/99
f 65/49/100 89/96/100 91/95/100
f 95/98/6 92/99/6 94/100/6
f 48/62/101 92/99/101 93/65/101
f 47/66/102 94/100/102 92/99/102
f 65/49/103 95/98/103 94/100/103
f 99/101/6 96/63/6 98/102/6
f 67/45/18 98/102/18 66/47/18
f 66/47/18 96/63/18 48/62/18
f 49/103/18 99/101/18 67/45/18
f 102/61/16 100/105/16 103/107/16
f 39/44/104 101/104/104 102/61/104
f 22/106/105 100/105/105 101/104/105
f 49/103/106 103/107/106 100/105/106
f 23/108/2 12/28/2 6/6/2
f 104/109/107 31/4/107 115/127/107
f 25/29/108 114/110/108 124/111/108
f 124/111/109 113/112/109 123/113/109
f 123/113/110 112/114/110 122/115/110
f 122/115/111 111/116/111 121/117/111
f 121/117/112 110/118/112 120/119/112
f 120/119/113 109/120/113 28/35/113
f 109/120/114 119/121/114 28/35/114
f 108/9/115 118/122/115 119/121/115
f 107/11/116 117/124/116 118/122/116
f 106/123/117 116/126/117 117/124/117
f 105/125/118 115/127/118 116/126/118
l 5 16
l 15 7
l 33 62
l 32 61
l 5 60
