# Blender v2.82 (sub 7) OBJ File: 'horse.blend'
# www.blender.org
mtllib book1.mtl
o Cube.004
v -6.471363 1.877120 -0.419876
v -6.471363 1.332980 -0.429104
v -6.471363 1.877120 -0.345162
v -6.471363 1.332980 -0.337018
v -6.121528 1.877120 -0.420597
v -6.080091 1.332980 -0.429104
v -6.121528 1.877120 -0.345524
v -6.078331 1.332980 -0.337018
v -6.471363 1.877120 -0.337018
v -6.471363 1.877120 -0.429104
v -6.078331 1.877120 -0.337018
v -6.080091 1.877120 -0.429104
v -6.471363 1.850776 -0.345162
v -6.471363 1.850776 -0.419876
v -6.090253 1.868133 -0.345524
v -6.090177 1.868133 -0.420597
v -6.471363 1.850776 -0.429104
v -6.471363 1.850776 -0.337018
v -6.471363 1.332980 -0.419876
v -6.471363 1.332980 -0.345162
v -6.455205 1.868133 -0.420237
v -6.455206 1.868133 -0.345343
v -6.080091 1.332980 -0.420597
v -6.078331 1.332980 -0.345524
v -6.080091 1.877120 -0.417593
v -6.077524 1.877120 -0.406082
v -6.073662 1.877120 -0.394572
v -6.072438 1.877120 -0.383061
v -6.073669 1.877120 -0.371550
v -6.077480 1.877120 -0.360039
v -6.078331 1.877120 -0.348529
v -6.116561 1.875486 -0.409925
v -6.114056 1.874661 -0.399891
v -6.112201 1.874051 -0.390025
v -6.112201 1.874051 -0.381250
v -6.112201 1.874051 -0.371257
v -6.114056 1.874661 -0.362354
v -6.116561 1.875486 -0.353620
v -6.121528 1.868133 -0.345502
v -6.121528 1.868133 -0.420554
v -6.455205 1.868133 -0.412747
v -6.455205 1.868133 -0.405258
v -6.455205 1.868133 -0.397768
v -6.455205 1.868133 -0.390279
v -6.455205 1.868133 -0.382790
v -6.455205 1.868133 -0.375300
v -6.455205 1.868133 -0.367811
v -6.455205 1.868133 -0.360322
v -6.455205 1.868133 -0.352832
v -6.090384 1.868133 -0.353031
v -6.086142 1.868133 -0.360539
v -6.081895 1.868133 -0.368046
v -6.079993 1.868133 -0.375553
v -6.079399 1.868133 -0.383061
v -6.079993 1.868133 -0.390568
v -6.081860 1.868133 -0.398075
v -6.086009 1.868133 -0.405583
v -6.090289 1.868133 -0.413090
v -6.118317 1.868133 -0.413049
v -6.116607 1.868133 -0.405543
v -6.115354 1.868133 -0.398038
v -6.114315 1.868133 -0.390533
v -6.113408 1.868133 -0.383028
v -6.114315 1.868133 -0.375523
v -6.115354 1.868133 -0.368017
v -6.116607 1.868133 -0.360512
v -6.118317 1.868133 -0.353007
v -6.455205 1.869505 -0.412747
v -6.455205 1.869505 -0.405258
v -6.118317 1.869505 -0.413049
v -6.116607 1.869505 -0.405543
v -6.455205 1.868133 -0.405258
v -6.455205 1.868133 -0.397768
v -6.116607 1.868133 -0.405543
v -6.115354 1.868133 -0.398038
v -6.455205 1.868133 -0.397768
v -6.455205 1.868133 -0.390279
v -6.115354 1.868133 -0.398038
v -6.114315 1.868133 -0.390533
v -6.455205 1.870223 -0.397768
v -6.455205 1.870223 -0.390279
v -6.115354 1.870223 -0.398038
v -6.114315 1.870223 -0.390533
v -6.455205 1.867391 -0.390279
v -6.455205 1.867391 -0.382790
v -6.114315 1.867391 -0.390533
v -6.113408 1.867391 -0.383028
v -6.455205 1.869587 -0.375300
v -6.455205 1.869587 -0.367811
v -6.114315 1.869587 -0.375523
v -6.115354 1.869587 -0.368017
v -6.455205 1.867417 -0.367811
v -6.455205 1.867417 -0.360322
v -6.115354 1.867417 -0.368017
v -6.116607 1.867417 -0.360512
v -6.455205 1.868133 -0.360322
v -6.455205 1.868133 -0.352832
v -6.116607 1.868133 -0.360512
v -6.118317 1.868133 -0.353007
v -6.455205 1.870300 -0.352832
v -6.455206 1.870300 -0.345343
v -6.121528 1.870300 -0.345502
v -6.118317 1.870300 -0.353007
v -6.082238 1.332980 -0.351780
v -6.079859 1.332980 -0.358036
v -6.075923 1.332980 -0.364292
v -6.073990 1.332980 -0.370549
v -6.072813 1.332980 -0.376805
v -6.072438 1.332980 -0.383061
v -6.072813 1.332980 -0.389317
v -6.073987 1.332980 -0.395573
v -6.075904 1.332980 -0.401829
v -6.079862 1.332980 -0.408085
v -6.082778 1.332980 -0.414341
v -6.081985 1.877120 -0.354284
v -6.077480 1.877120 -0.360039
v -6.075065 1.877120 -0.365795
v -6.073669 1.877120 -0.371550
v -6.072754 1.877120 -0.377305
v -6.072754 1.877120 -0.388816
v -6.073662 1.877120 -0.394572
v -6.075041 1.877120 -0.400327
v -6.077524 1.877120 -0.406082
v -6.082596 1.877120 -0.411838
vt 0.500000 0.250000
vt 0.625000 0.500000
vt 0.375000 0.500000
vt 0.625000 0.562500
vt 0.375000 0.531250
vt 0.625000 0.750000
vt 0.625000 1.000000
vt 0.500000 1.000000
vt 0.625000 0.588542
vt 0.625000 0.583333
vt 0.875000 0.562500
vt 0.148093 0.523093
vt 0.148093 0.523093
vt 0.351907 0.523093
vt 0.125000 0.500000
vt 0.351907 0.548570
vt 0.351907 0.726907
vt 0.125000 0.750000
vt 0.148093 0.726907
vt 0.000000 0.000000
vt 0.000000 0.000000
vt 0.000000 0.000000
vt 0.148093 0.726907
vt 0.375000 1.000000
vt 0.625000 0.250000
vt 0.875000 0.625000
vt 0.875000 0.750000
vt 0.375000 0.718750
vt 0.375000 0.750000
vt 0.351907 0.701430
vt 0.375000 0.687500
vt 0.351907 0.675953
vt 0.375000 0.656250
vt 0.351907 0.650477
vt 0.375000 0.625000
vt 0.351907 0.625000
vt 0.375000 0.593750
vt 0.351907 0.574047
vt 0.351907 0.599523
vt 0.375000 0.562500
vt 0.000000 0.000000
vt 0.000000 0.000000
vt 0.000000 0.000000
vt 0.000000 0.000000
vt 0.000000 0.000000
vt 0.000000 0.000000
vt 0.000000 0.000000
vt 0.000000 0.000000
vt 0.000000 0.000000
vt 0.000000 0.000000
vt 0.000000 0.000000
vt 0.000000 0.000000
vt 0.000000 0.000000
vt 0.000000 0.000000
vt 0.000000 0.000000
vt 0.000000 0.000000
vt 0.000000 0.000000
vt 0.000000 0.000000
vt 0.000000 0.000000
vt 0.000000 0.000000
vt 0.000000 0.000000
vt 0.000000 0.000000
vt 0.000000 0.000000
vt 0.000000 0.000000
vt 0.000000 0.000000
vt 0.000000 0.000000
vt 0.000000 0.000000
vt 0.000000 0.000000
vt 0.000000 0.000000
vt 0.000000 0.000000
vt 0.000000 0.000000
vt 0.000000 0.000000
vt 0.000000 0.000000
vt 0.000000 0.000000
vt 0.000000 0.000000
vt 0.000000 0.000000
vt 0.000000 0.000000
vt 0.000000 0.000000
vt 0.000000 0.000000
vt 0.000000 0.000000
vt 0.000000 0.000000
vt 0.000000 0.000000
vt 0.000000 0.000000
vt 0.000000 0.000000
vt 0.000000 0.000000
vt 0.000000 0.000000
vt 0.000000 0.000000
vt 0.000000 0.000000
vt 0.000000 0.000000
vt 0.000000 0.000000
vt 0.000000 0.000000
vt 0.000000 0.000000
vt 0.000000 0.000000
vt 0.000000 0.000000
vt 0.000000 0.000000
vt 0.000000 0.000000
vt 0.000000 0.000000
vt 0.000000 0.000000
vt 0.000000 0.000000
vt 0.000000 0.000000
vt 0.000000 0.000000
vt 0.000000 0.000000
vt 0.000000 0.000000
vt 0.000000 0.000000
vt 0.000000 0.000000
vt 0.000000 0.000000
vt 0.000000 0.000000
vt 0.625000 0.625000
vt 0.625000 0.567708
vt 0.625000 0.619792
vt 0.375000 0.703125
vt 0.625000 0.614583
vt 0.375000 0.687500
vt 0.625000 0.609375
vt 0.375000 0.671875
vt 0.625000 0.604167
vt 0.375000 0.656250
vt 0.625000 0.598958
vt 0.375000 0.640625
vt 0.625000 0.593750
vt 0.375000 0.609375
vt 0.375000 0.593750
vt 0.375000 0.578125
vt 0.625000 0.578125
vt 0.375000 0.562500
vt 0.625000 0.572917
vt 0.375000 0.546875
vt 0.375000 0.250000
vt 0.875000 0.500000
vt 0.000000 0.000000
vn -0.0000 0.0000 1.0000
vn 1.0000 0.0000 0.0000
vn 0.0000 0.0000 -1.0000
vn 0.0000 -1.0000 0.0000
vn -1.0000 0.0000 0.0000
vn 0.0000 1.0000 0.0000
vn -0.0144 0.9784 -0.2064
vn -0.0428 0.9990 0.0096
vn -0.0635 0.9978 0.0213
vn -0.0784 0.9969 0.0083
vn -0.0773 0.9970 -0.0083
vn -0.0798 0.9932 -0.0847
vn -0.0597 0.9921 -0.1107
vn 0.9194 0.0000 0.3933
vn -0.0006 0.0000 -1.0000
vn 0.0007 0.0000 1.0000
vn 0.0008 0.0000 1.0000
vn 0.9194 -0.0019 -0.3933
vn -0.9181 0.0524 0.3928
vn -0.9065 0.0021 0.4222
vn -0.9585 0.2359 0.1600
vn -0.9372 0.3237 0.1298
vn -0.9533 0.2097 -0.2173
vn 0.9750 0.0000 -0.2222
vn -0.0009 0.0000 -1.0000
vn -0.0008 0.0000 -1.0000
vn 0.9906 0.0000 -0.1371
vn -0.9928 0.0000 0.1200
vn -0.0007 0.0000 -1.0000
vn 0.9905 0.0000 0.1372
vn 0.0006 0.0000 1.0000
vn -0.9863 0.0000 -0.1647
vn 0.0005 0.0000 1.0000
vn -1.0000 0.0000 -0.0001
vn -0.0005 0.0000 -1.0000
vn 0.8482 -0.0029 -0.5297
vn 0.9188 -0.0022 0.3946
vn 0.9064 0.0016 -0.4225
vn 0.8451 -0.0017 -0.5346
vn 0.9561 -0.0007 -0.2930
vn 0.9828 -0.0002 -0.1845
vn 0.9982 -0.0001 -0.0598
vn 0.9982 -0.0001 0.0598
vn 0.9827 -0.0002 0.1850
vn 0.9554 -0.0007 0.2952
vn 0.8464 -0.0017 0.5325
vn 0.9347 0.0012 0.3554
vn -0.0113 0.9876 0.1565
vn -0.0509 0.9942 0.0943
vn -0.0704 0.9947 0.0748
vn -0.0770 0.9970 0.0000
vn -0.0794 0.9968 0.0000
vn -0.0657 0.9976 -0.0217
vn -0.0423 0.9991 -0.0031
vn 0.0000 1.0000 -0.0001
vn 0.9194 0.0000 0.3934
vn -0.9553 0.1556 0.2513
vn -0.9658 0.1372 0.2201
vn -0.9799 0.1996 0.0000
vn -0.9503 0.2438 0.1938
vn -0.9387 0.3255 0.1134
vn -0.9657 0.2320 -0.1167
vn -0.9418 0.3363 0.0000
vn -0.9024 0.4124 -0.1249
vn -0.9059 0.3656 -0.2138
vn -0.8282 0.1530 -0.5391
vn -0.9165 0.2765 -0.2889
vn -0.9194 -0.0010 -0.3933
vn -0.9342 0.3208 -0.1560
vn 0.9906 0.0000 0.1371
vn 0.8442 -0.0029 -0.5360
vn 0.9169 -0.0021 0.3992
vn 0.7502 -0.0008 -0.6612
vn 0.9182 -0.0004 -0.3961
vn 0.9725 -0.0002 -0.2330
vn 0.9878 0.0000 -0.1557
vn 0.9985 0.0000 -0.0549
vn 0.9985 0.0000 0.0549
vn 0.9876 0.0000 0.1569
vn 0.9718 -0.0001 0.2358
vn 0.9221 -0.0004 0.3869
vn 0.7875 -0.0012 0.6163
usemtl Material.001
s off
f 18/1/1 8/2/1 11/3/1
f 11/3/2 24/4/2 31/5/2
f 6/6/3 2/7/3 17/8/3
f 108/9/4 107/10/4 20/11/4
f 18/1/5 3/12/5 13/13/5
f 7/14/6 9/15/6 11/3/6
f 7/14/7 31/5/7 38/16/7
f 5/17/6 10/18/6 1/19/6
f 40/20/6 41/21/6 59/22/6
f 14/23/5 10/24/5 17/8/5
f 13/13/5 4/25/5 18/1/5
f 19/26/5 17/8/5 2/27/5
f 5/17/6 25/28/6 12/29/6
f 32/30/8 26/31/8 25/28/8
f 33/32/9 27/33/9 26/31/9
f 34/34/10 28/35/10 27/33/10
f 35/36/11 29/37/11 28/35/11
f 37/38/12 29/37/12 36/39/12
f 38/16/13 30/40/13 37/38/13
f 35/36/1 34/34/1 36/39/1
f 16/41/6 59/22/6 58/42/6
f 15/43/6 67/44/6 39/45/6
f 50/46/6 66/47/6 67/44/6
f 51/48/6 65/49/6 66/47/6
f 52/50/6 64/51/6 65/49/6
f 53/52/6 63/53/6 64/51/6
f 55/54/6 63/53/6 54/55/6
f 56/56/6 62/57/6 55/54/6
f 57/58/6 61/59/6 56/56/6
f 58/42/6 60/60/6 57/58/6
f 67/44/14 102/61/14 39/45/14
f 48/62/1 97/63/1 96/64/1
f 66/47/15 93/65/15 48/62/15
f 47/66/5 88/67/5 46/68/5
f 64/51/6 45/69/6 46/68/6
f 44/70/16 86/71/16 62/57/16
f 62/57/1 78/72/1 79/73/1
f 60/60/1 72/74/1 74/75/1
f 60/60/17 69/76/17 42/77/17
f 40/20/18 5/78/18 59/22/18
f 40/20/19 59/22/19 32/79/19
f 32/79/20 5/78/20 40/20/20
f 60/60/21 61/59/21 33/32/21
f 34/34/22 61/59/22 62/57/22
f 66/47/23 67/44/23 38/16/23
f 70/80/6 69/76/6 71/81/6
f 59/22/24 71/81/24 60/60/24
f 41/21/25 70/80/25 59/22/25
f 42/77/5 68/82/5 41/21/5
f 74/75/6 73/83/6 75/84/6
f 42/77/1 73/83/1 72/74/1
f 61/59/1 74/75/1 75/84/1
f 43/85/1 75/84/1 73/83/1
f 77/86/5 80/87/5 76/88/5
f 44/70/1 79/73/1 77/86/1
f 61/59/1 76/88/1 78/72/1
f 43/85/1 77/86/1 76/88/1
f 82/89/6 81/90/6 83/91/6
f 76/88/26 82/89/26 78/72/26
f 78/72/27 83/91/27 79/73/27
f 79/73/16 81/90/16 77/86/16
f 86/71/6 85/92/6 87/93/6
f 45/69/2 84/94/2 44/70/2
f 62/57/28 87/93/28 63/53/28
f 63/53/29 85/92/29 45/69/29
f 91/95/6 88/67/6 89/96/6
f 46/68/29 90/97/29 64/51/29
f 64/51/30 91/95/30 65/49/30
f 65/49/31 89/96/31 47/66/31
f 95/98/6 92/99/6 93/65/6
f 48/62/2 92/99/2 47/66/2
f 47/66/31 94/100/31 65/49/31
f 65/49/32 95/98/32 66/47/32
f 99/101/6 96/64/6 97/63/6
f 67/44/1 98/102/1 99/101/1
f 66/47/1 96/64/1 98/102/1
f 49/103/1 99/101/1 97/63/1
f 102/61/6 100/104/6 101/105/6
f 39/45/33 101/105/33 22/106/33
f 22/106/34 100/104/34 49/103/34
f 49/103/35 103/107/35 67/44/35
f 23/108/2 12/29/2 25/28/2
f 104/109/36 31/5/36 24/4/36
f 25/28/37 114/110/37 23/108/37
f 124/111/38 113/112/38 114/110/38
f 123/113/39 112/114/39 113/112/39
f 122/115/40 111/116/40 112/114/40
f 121/117/41 110/118/41 111/116/41
f 120/119/42 109/120/42 110/118/42
f 109/120/43 119/121/43 108/9/43
f 108/9/44 118/122/44 107/10/44
f 107/10/45 117/123/45 106/124/45
f 106/124/46 116/125/46 105/126/46
f 105/126/47 115/127/47 104/109/47
f 11/3/1 9/128/1 18/1/1
f 18/1/1 4/25/1 8/2/1
f 11/3/2 8/2/2 24/4/2
f 10/24/3 12/29/3 17/8/3
f 12/29/3 6/6/3 17/8/3
f 24/4/4 8/2/4 20/11/4
f 8/2/4 4/129/4 20/11/4
f 20/11/4 19/26/4 109/120/4
f 19/26/4 2/27/4 23/108/4
f 23/108/4 2/27/4 6/6/4
f 104/109/4 24/4/4 20/11/4
f 114/110/4 19/26/4 23/108/4
f 113/112/4 112/114/4 19/26/4
f 112/114/4 111/116/4 19/26/4
f 19/26/4 114/110/4 113/112/4
f 111/116/4 110/118/4 19/26/4
f 109/120/4 19/26/4 110/118/4
f 105/126/4 104/109/4 20/11/4
f 107/10/4 106/124/4 20/11/4
f 106/124/4 105/126/4 20/11/4
f 109/120/4 108/9/4 20/11/4
f 18/1/5 9/15/5 3/12/5
f 7/14/6 3/12/6 9/15/6
f 7/14/6 11/3/6 31/5/6
f 5/17/6 12/29/6 10/18/6
f 40/20/6 21/130/6 41/21/6
f 14/23/5 1/19/5 10/24/5
f 13/13/5 20/11/5 4/25/5
f 19/26/5 14/23/5 17/8/5
f 5/17/48 32/30/48 25/28/48
f 32/30/49 33/32/49 26/31/49
f 33/32/50 34/34/50 27/33/50
f 34/34/51 35/36/51 28/35/51
f 35/36/52 36/39/52 29/37/52
f 37/38/53 30/40/53 29/37/53
f 38/16/54 31/5/54 30/40/54
f 16/41/6 40/20/6 59/22/6
f 15/43/6 50/46/6 67/44/6
f 50/46/6 51/48/6 66/47/6
f 51/48/55 52/50/55 65/49/55
f 52/50/6 53/52/6 64/51/6
f 53/52/6 54/55/6 63/53/6
f 55/54/6 62/57/6 63/53/6
f 56/56/6 61/59/6 62/57/6
f 57/58/6 60/60/6 61/59/6
f 58/42/6 59/22/6 60/60/6
f 67/44/56 103/107/56 102/61/56
f 48/62/1 49/103/1 97/63/1
f 66/47/15 95/98/15 93/65/15
f 47/66/5 89/96/5 88/67/5
f 64/51/6 63/53/6 45/69/6
f 44/70/16 84/94/16 86/71/16
f 62/57/1 61/59/1 78/72/1
f 60/60/1 42/77/1 72/74/1
f 60/60/17 71/81/17 69/76/17
f 33/32/57 32/79/57 60/60/57
f 32/79/58 59/22/58 60/60/58
f 63/53/59 35/36/59 34/34/59
f 34/34/60 33/32/60 61/59/60
f 62/57/61 63/53/61 34/34/61
f 35/36/62 63/53/62 64/51/62
f 35/36/63 64/51/63 36/39/63
f 64/51/64 65/49/64 36/39/64
f 37/38/65 36/39/65 65/49/65
f 7/14/66 38/16/66 67/44/66
f 38/16/67 37/38/67 66/47/67
f 67/44/68 39/45/68 7/14/68
f 65/49/69 66/47/69 37/38/69
f 70/80/6 68/82/6 69/76/6
f 59/22/24 70/80/24 71/81/24
f 41/21/25 68/82/25 70/80/25
f 42/77/5 69/76/5 68/82/5
f 74/75/6 72/74/6 73/83/6
f 42/77/1 43/85/1 73/83/1
f 61/59/1 60/60/1 74/75/1
f 43/85/1 61/59/1 75/84/1
f 77/86/5 81/90/5 80/87/5
f 44/70/1 62/57/1 79/73/1
f 61/59/1 43/85/1 76/88/1
f 43/85/1 44/70/1 77/86/1
f 82/89/6 80/87/6 81/90/6
f 76/88/26 80/87/26 82/89/26
f 78/72/27 82/89/27 83/91/27
f 79/73/16 83/91/16 81/90/16
f 86/71/6 84/94/6 85/92/6
f 45/69/2 85/92/2 84/94/2
f 62/57/28 86/71/28 87/93/28
f 63/53/29 87/93/29 85/92/29
f 91/95/6 90/97/6 88/67/6
f 46/68/29 88/67/29 90/97/29
f 64/51/70 90/97/70 91/95/70
f 65/49/31 91/95/31 89/96/31
f 95/98/6 94/100/6 92/99/6
f 48/62/2 93/65/2 92/99/2
f 47/66/31 92/99/31 94/100/31
f 65/49/32 94/100/32 95/98/32
f 99/101/6 98/102/6 96/64/6
f 67/44/1 66/47/1 98/102/1
f 66/47/1 48/62/1 96/64/1
f 49/103/1 67/44/1 99/101/1
f 102/61/6 103/107/6 100/104/6
f 39/45/33 102/61/33 101/105/33
f 22/106/34 101/105/34 100/104/34
f 49/103/35 100/104/35 103/107/35
f 23/108/2 6/6/2 12/29/2
f 104/109/71 115/127/71 31/5/71
f 25/28/72 124/111/72 114/110/72
f 124/111/73 123/113/73 113/112/73
f 123/113/74 122/115/74 112/114/74
f 122/115/75 121/117/75 111/116/75
f 121/117/76 120/119/76 110/118/76
f 120/119/77 28/35/77 109/120/77
f 109/120/78 28/35/78 119/121/78
f 108/9/79 119/121/79 118/122/79
f 107/10/80 118/122/80 117/123/80
f 106/124/81 117/123/81 116/125/81
f 105/126/82 116/125/82 115/127/82
l 5 16
l 15 7
l 33 62
l 32 61
l 5 60
