# Blender v2.82 (sub 7) OBJ File: 'horse.blend'
# www.blender.org
mtllib colchao.mtl
o Colchao_Cube.005
v 4.486644 0.778144 -3.037231
v 4.486644 0.778143 -0.805001
v 6.137241 0.778143 -0.805001
v 6.137241 0.778144 -3.037231
v 6.347853 1.199014 -3.037231
v 6.347853 1.199015 -4.109317
v 6.347853 0.825769 -4.109317
v 6.347853 0.825769 -3.037231
v 6.137241 1.199015 -4.530938
v 4.486644 1.199015 -4.530938
v 4.486644 0.825769 -4.530938
v 6.137241 0.825769 -4.530938
v 6.137241 0.825768 -0.383380
v 6.242409 0.825769 -0.439707
v 6.237958 0.802994 -0.494421
v 6.137241 0.801988 -0.439707
v 6.237958 0.790687 -0.603377
v 6.137241 0.784507 -0.594467
v 6.242409 0.784507 -0.805001
v 6.292385 0.802994 -0.603377
v 6.319716 0.801988 -0.805001
v 6.347853 0.825768 -0.805001
v 6.319716 0.825769 -0.594467
v 6.137241 1.246640 -4.109317
v 6.137241 1.240277 -4.319851
v 6.237958 1.234096 -4.310941
v 6.242409 1.240277 -4.109317
v 6.292385 1.221789 -4.310941
v 6.319716 1.222795 -4.109317
v 6.319716 1.199015 -4.319851
v 6.237958 1.221789 -4.419896
v 6.242409 1.199015 -4.474611
v 6.137241 1.222795 -4.474611
v 6.137241 0.778144 -4.109317
v 6.242409 0.784507 -4.109317
v 6.237958 0.790687 -4.310941
v 6.137241 0.784507 -4.319851
v 6.237958 0.802994 -4.419896
v 6.137241 0.801988 -4.474611
v 6.242409 0.825769 -4.474611
v 6.292385 0.802994 -4.310941
v 6.319716 0.825769 -4.319851
v 6.319716 0.801988 -4.109317
v 4.381476 0.784507 -0.805001
v 4.385928 0.790687 -0.603377
v 4.486644 0.784507 -0.594467
v 4.385928 0.802994 -0.494421
v 4.486644 0.801988 -0.439707
v 4.486644 0.825768 -0.383380
v 4.381476 0.825769 -0.439707
v 4.331501 0.802994 -0.603377
v 4.304170 0.825769 -0.594467
v 4.276033 0.825768 -0.805001
v 4.304170 0.801988 -0.805001
v 4.486644 1.246640 -4.109317
v 4.381476 1.240277 -4.109317
v 4.385928 1.234096 -4.310941
v 4.486644 1.240277 -4.319851
v 4.385928 1.221789 -4.419896
v 4.486644 1.222795 -4.474611
v 4.381476 1.199015 -4.474611
v 4.331501 1.221789 -4.310941
v 4.304170 1.199015 -4.319851
v 4.276033 1.199015 -4.109317
v 4.304170 1.222795 -4.109317
v 4.486644 0.778144 -4.109317
v 4.486644 0.784507 -4.319851
v 4.385928 0.790687 -4.310941
v 4.381476 0.784507 -4.109317
v 4.331501 0.802994 -4.310941
v 4.304170 0.801988 -4.109317
v 4.276033 0.825769 -4.109317
v 4.304170 0.825769 -4.319851
v 4.385928 0.802994 -4.419896
v 4.381476 0.825769 -4.474611
v 4.486644 0.801988 -4.474611
v 6.242409 0.784507 -3.037231
v 6.319716 0.801988 -3.037231
v 4.486644 1.246639 -3.037231
v 4.381476 1.240277 -3.037231
v 4.304170 1.222795 -3.037231
v 4.276033 1.199014 -3.037231
v 4.381476 0.784507 -3.037231
v 4.304170 0.801988 -3.037231
v 4.276033 0.825769 -3.037231
v 6.137241 1.246639 -3.037231
v 6.319716 1.222795 -3.037231
v 6.242409 1.240277 -3.037231
vt 0.650414 0.724586
vt 0.650414 0.590035
vt 0.849586 0.590035
vt 0.400414 0.224586
vt 0.400414 0.159965
vt 0.599586 0.159965
vt 0.400414 0.474586
vt 0.400414 0.275414
vt 0.599586 0.275414
vt 0.599586 0.987276
vt 0.599586 0.974586
vt 0.612276 0.974586
vt 0.611739 0.986739
vt 0.625000 0.974586
vt 0.849586 0.724586
vt 0.862276 0.724586
vt 0.861739 0.736739
vt 0.875000 0.724586
vt 0.875000 0.736739
vt 0.599586 0.025414
vt 0.599586 0.012724
vt 0.611739 0.013261
vt 0.599586 0.000000
vt 0.611739 0.000000
vt 0.625000 0.986739
vt 0.611739 1.000000
vt 0.150414 0.525414
vt 0.137724 0.525414
vt 0.138261 0.513261
vt 0.125000 0.525414
vt 0.125000 0.513261
vt 0.400414 0.237276
vt 0.388261 0.236739
vt 0.400414 0.262724
vt 0.388261 0.263261
vt 0.387724 0.275414
vt 0.375000 0.275414
vt 0.138261 0.500000
vt 0.849586 0.525414
vt 0.849586 0.512724
vt 0.861739 0.513261
vt 0.849586 0.500000
vt 0.861739 0.500000
vt 0.612276 0.275414
vt 0.599586 0.262724
vt 0.611739 0.263261
vt 0.599586 0.237276
vt 0.599586 0.224586
vt 0.612276 0.224586
vt 0.611739 0.236739
vt 0.625000 0.224586
vt 0.875000 0.513261
vt 0.650414 0.737276
vt 0.638261 0.736739
vt 0.650414 0.750000
vt 0.638261 0.750000
vt 0.612276 0.775414
vt 0.599586 0.775414
vt 0.599586 0.762724
vt 0.611739 0.763261
vt 0.599586 0.737276
vt 0.599586 0.724586
vt 0.612276 0.724586
vt 0.611739 0.736739
vt 0.637724 0.724586
vt 0.625000 0.736739
vt 0.349586 0.525414
vt 0.349586 0.512724
vt 0.361739 0.513261
vt 0.349586 0.500000
vt 0.361739 0.500000
vt 0.387724 0.474586
vt 0.400414 0.487276
vt 0.388261 0.486739
vt 0.400414 0.512724
vt 0.400414 0.525414
vt 0.387724 0.525414
vt 0.388261 0.513261
vt 0.362276 0.525414
vt 0.375000 0.513261
vt 0.650414 0.525414
vt 0.637724 0.525414
vt 0.638261 0.513261
vt 0.612276 0.525414
vt 0.611739 0.513261
vt 0.599586 0.525414
vt 0.599586 0.512724
vt 0.599586 0.487276
vt 0.611739 0.486739
vt 0.599586 0.474586
vt 0.612276 0.474586
vt 0.625000 0.474586
vt 0.625000 0.513261
vt 0.638261 0.500000
vt 0.862276 0.525414
vt 0.875000 0.590035
vt 0.862276 0.590035
vt 0.612276 0.159965
vt 0.150414 0.512724
vt 0.650414 0.512724
vt 0.349586 0.590035
vt 0.387724 0.590035
vt 0.362276 0.590035
vt 0.400414 0.590035
vt 0.637724 0.590035
vt 0.612276 0.590035
vt 0.849586 0.737276
vt 0.150414 0.590035
vt 0.599586 0.590035
vt 0.612276 0.025414
vt 0.387724 0.224586
vt 0.387724 0.159965
vt 0.137724 0.590035
vt 0.375000 0.263261
vt 0.625000 0.236739
vt 0.625000 0.486739
vt 0.875000 0.525414
vt 0.150414 0.500000
vt 0.650414 0.500000
vt 0.849586 0.750000
vt 0.125000 0.590035
vn -0.0305 -0.9994 0.0154
vn -0.0302 -0.9995 -0.0000
vn 0.0302 -0.9995 -0.0000
vn 0.9080 0.4146 -0.0608
vn 0.9071 0.4210 0.0000
vn 0.8320 -0.5547 -0.0000
vn -0.2026 0.5133 -0.8339
vn 0.2026 0.5133 -0.8339
vn 0.2026 -0.5133 -0.8339
vn 0.2990 -0.8878 0.3498
vn 0.0854 -0.9179 0.3875
vn 0.0795 -0.9593 0.2710
vn 0.3135 -0.9202 0.2343
vn 0.0338 -0.9968 0.0723
vn 0.0305 -0.9994 0.0154
vn 0.1414 -0.9898 0.0167
vn 0.1429 -0.9872 0.0707
vn 0.4533 -0.8907 0.0333
vn 0.4351 -0.8907 0.1316
vn 0.6437 -0.7640 0.0436
vn 0.5934 -0.7838 0.1831
vn 0.0305 0.9994 -0.0154
vn 0.1414 0.9898 -0.0167
vn 0.1429 0.9872 -0.0707
vn 0.4533 0.8907 -0.0333
vn 0.4351 0.8907 -0.1316
vn 0.8681 0.4184 -0.2671
vn 0.6129 0.4799 -0.6277
vn 0.3135 0.9202 -0.2343
vn 0.0795 0.9593 -0.2710
vn 0.0338 0.9968 -0.0723
vn 0.0305 -0.9994 -0.0154
vn 0.0338 -0.9968 -0.0723
vn 0.1429 -0.9872 -0.0707
vn 0.0795 -0.9593 -0.2710
vn 0.3135 -0.9202 -0.2343
vn 0.6129 -0.4799 -0.6277
vn 0.8681 -0.4184 -0.2671
vn 0.9080 -0.4146 -0.0608
vn 0.4533 -0.8907 -0.0333
vn 0.4351 -0.8907 -0.1316
vn 0.1414 -0.9898 -0.0167
vn -0.0338 -0.9968 0.0723
vn -0.1429 -0.9872 0.0707
vn -0.0795 -0.9593 0.2710
vn -0.3135 -0.9202 0.2343
vn -0.0854 -0.9179 0.3875
vn -0.2990 -0.8878 0.3498
vn -0.5934 -0.7838 0.1831
vn -0.6437 -0.7640 0.0436
vn -0.4533 -0.8907 0.0333
vn -0.4351 -0.8907 0.1316
vn -0.1414 -0.9898 0.0167
vn -0.0305 0.9994 -0.0154
vn -0.0338 0.9968 -0.0723
vn -0.1429 0.9872 -0.0707
vn -0.0795 0.9593 -0.2710
vn -0.3135 0.9202 -0.2343
vn -0.6129 0.4799 -0.6277
vn -0.8681 0.4184 -0.2671
vn -0.9080 0.4145 -0.0608
vn -0.4534 0.8907 -0.0333
vn -0.4351 0.8907 -0.1316
vn -0.1414 0.9898 -0.0167
vn -0.0305 -0.9994 -0.0154
vn -0.1414 -0.9898 -0.0167
vn -0.1429 -0.9872 -0.0707
vn -0.4533 -0.8907 -0.0333
vn -0.4351 -0.8907 -0.1316
vn -0.9080 -0.4145 -0.0608
vn -0.8681 -0.4184 -0.2671
vn -0.6129 -0.4799 -0.6277
vn -0.3135 -0.9202 -0.2343
vn -0.2026 -0.5133 -0.8339
vn -0.0795 -0.9593 -0.2710
vn -0.0338 -0.9968 -0.0723
vn 0.4458 -0.8951 -0.0000
vn 0.1409 -0.9900 -0.0000
vn -0.0302 0.9995 0.0000
vn -0.4458 0.8951 0.0000
vn -0.1409 0.9900 0.0000
vn -0.9071 0.4210 0.0000
vn -0.1409 -0.9900 -0.0000
vn -0.4458 -0.8951 -0.0000
vn 0.0302 0.9995 0.0000
vn -0.8320 -0.5547 -0.0000
vn 0.4458 0.8951 0.0000
vn 0.1409 0.9900 0.0000
usemtl Material.005
s 1
f 2/1/1 1/2/2 4/3/3
f 6/4/4 5/5/5 8/6/6
f 10/7/7 9/8/8 12/9/9
f 14/10/10 13/11/11 16/12/12
f 15/13/13 16/12/12 18/14/14
f 3/15/15 19/16/16 17/17/17
f 19/16/16 21/18/18 20/19/19
f 22/20/20 23/21/21 20/22/19
f 23/21/21 14/23/10 15/24/13
f 15/13/13 17/25/17 20/26/19
f 24/27/22 27/28/23 26/29/24
f 27/28/23 29/30/25 28/31/26
f 6/4/4 30/32/27 28/33/26
f 30/32/27 32/34/28 31/35/29
f 32/34/28 9/8/8 33/36/30
f 31/35/29 33/36/30 25/37/31
f 26/29/24 28/31/26 31/38/29
f 34/39/32 37/40/33 36/41/34
f 37/40/33 39/42/35 38/43/36
f 39/44/35 12/9/9 40/45/37
f 38/46/36 40/45/37 42/47/38
f 7/48/39 43/49/40 41/50/41
f 41/50/41 43/49/40 35/51/42
f 36/41/34 38/43/36 41/52/41
f 2/1/1 46/53/43 45/54/44
f 46/53/43 48/55/45 47/56/46
f 48/57/45 49/58/47 50/59/48
f 47/60/46 50/59/48 52/61/49
f 53/62/50 54/63/51 51/64/52
f 51/64/52 54/63/51 44/65/53
f 45/54/44 47/56/46 51/66/52
f 55/67/54 58/68/55 57/69/56
f 58/68/55 60/70/57 59/71/58
f 60/72/57 10/7/7 61/73/59
f 59/74/58 61/73/59 63/75/60
f 64/76/61 65/77/62 62/78/63
f 62/78/63 65/77/62 56/79/64
f 57/69/56 59/71/58 62/80/63
f 66/81/65 69/82/66 68/83/67
f 69/82/66 71/84/68 70/85/69
f 72/86/70 73/87/71 70/85/69
f 73/87/71 75/88/72 74/89/73
f 75/88/72 11/90/74 76/91/75
f 74/89/73 76/91/75 67/92/76
f 68/83/67 70/93/69 74/94/73
f 4/3/3 34/39/32 35/95/42
f 78/96/77 77/97/78 35/95/42
f 8/6/6 78/98/77 43/49/40
f 40/45/37 12/9/9 9/8/8
f 42/47/38 40/45/37 32/34/28
f 42/47/38 30/32/27 6/4/4
f 58/68/55 55/67/54 24/27/22
f 60/70/57 58/68/55 25/99/31
f 10/7/7 60/72/57 33/36/30
f 37/40/33 34/39/32 66/81/65
f 39/42/35 37/40/33 67/100/76
f 12/9/9 39/44/35 76/91/75
f 73/87/71 72/86/70 64/76/61
f 75/88/72 73/87/71 63/75/60
f 75/88/72 61/73/59 10/7/7
f 79/101/79 55/67/54 56/79/64
f 81/102/80 80/103/81 56/79/64
f 82/104/82 81/102/80 65/77/62
f 83/105/83 1/2/2 2/1/1
f 84/106/84 83/105/83 44/65/53
f 84/106/84 54/63/51 53/62/50
f 46/53/43 2/1/1 3/15/15
f 48/55/45 46/53/43 18/107/14
f 49/58/47 48/57/45 16/12/12
f 86/108/85 24/27/22 55/67/54
f 71/84/68 84/106/84 85/109/86
f 71/84/68 69/82/66 83/105/83
f 69/82/66 66/81/65 1/2/2
f 22/20/20 21/110/18 78/98/77
f 21/18/18 19/16/16 77/97/78
f 19/16/16 3/15/15 4/3/3
f 29/111/25 87/112/87 5/5/5
f 29/30/25 27/28/23 88/113/88
f 27/28/23 24/27/22 86/108/85
f 1/2/2 66/81/65 34/39/32
f 82/104/82 64/76/61 72/86/70
f 2/1/1 4/3/3 3/15/15
f 6/4/4 8/6/6 7/48/39
f 10/7/7 12/9/9 11/90/74
f 14/10/10 16/12/12 15/13/13
f 15/13/13 18/14/14 17/25/17
f 3/15/15 17/17/17 18/107/14
f 19/16/16 20/19/19 17/17/17
f 22/20/20 20/22/19 21/110/18
f 23/21/21 15/24/13 20/22/19
f 24/27/22 26/29/24 25/99/31
f 27/28/23 28/31/26 26/29/24
f 6/4/4 28/33/26 29/111/25
f 30/32/27 31/35/29 28/33/26
f 32/34/28 33/36/30 31/35/29
f 31/35/29 25/37/31 26/114/24
f 34/39/32 36/41/34 35/95/42
f 37/40/33 38/43/36 36/41/34
f 39/44/35 40/45/37 38/46/36
f 38/46/36 42/47/38 41/50/41
f 7/48/39 41/50/41 42/47/38
f 41/50/41 35/51/42 36/115/34
f 2/1/1 45/54/44 44/65/53
f 46/53/43 47/56/46 45/54/44
f 48/57/45 50/59/48 47/60/46
f 47/60/46 52/61/49 51/64/52
f 53/62/50 51/64/52 52/61/49
f 51/64/52 44/65/53 45/54/44
f 55/67/54 57/69/56 56/79/64
f 58/68/55 59/71/58 57/69/56
f 60/72/57 61/73/59 59/74/58
f 59/74/58 63/75/60 62/78/63
f 64/76/61 62/78/63 63/75/60
f 62/78/63 56/79/64 57/69/56
f 66/81/65 68/83/67 67/100/76
f 69/82/66 70/85/69 68/83/67
f 72/86/70 70/85/69 71/84/68
f 73/87/71 74/89/73 70/85/69
f 75/88/72 76/91/75 74/89/73
f 74/89/73 67/92/76 68/116/67
f 4/3/3 35/95/42 77/97/78
f 78/96/77 35/95/42 43/117/40
f 8/6/6 43/49/40 7/48/39
f 40/45/37 9/8/8 32/34/28
f 42/47/38 32/34/28 30/32/27
f 42/47/38 6/4/4 7/48/39
f 58/68/55 24/27/22 25/99/31
f 60/70/57 25/99/31 33/118/30
f 10/7/7 33/36/30 9/8/8
f 37/40/33 66/81/65 67/100/76
f 39/42/35 67/100/76 76/119/75
f 12/9/9 76/91/75 11/90/74
f 73/87/71 64/76/61 63/75/60
f 75/88/72 63/75/60 61/73/59
f 75/88/72 10/7/7 11/90/74
f 79/101/79 56/79/64 80/103/81
f 81/102/80 56/79/64 65/77/62
f 82/104/82 65/77/62 64/76/61
f 83/105/83 2/1/1 44/65/53
f 84/106/84 44/65/53 54/63/51
f 84/106/84 53/62/50 85/109/86
f 46/53/43 3/15/15 18/107/14
f 48/55/45 18/107/14 16/120/12
f 49/58/47 16/12/12 13/11/11
f 86/108/85 55/67/54 79/101/79
f 71/84/68 85/109/86 72/86/70
f 71/84/68 83/105/83 84/106/84
f 69/82/66 1/2/2 83/105/83
f 22/20/20 78/98/77 8/6/6
f 21/18/18 77/97/78 78/96/77
f 19/16/16 4/3/3 77/97/78
f 29/111/25 5/5/5 6/4/4
f 29/30/25 88/113/88 87/121/87
f 27/28/23 86/108/85 88/113/88
f 1/2/2 34/39/32 4/3/3
f 82/104/82 72/86/70 85/109/86
