# Blender v2.82 (sub 7) OBJ File: 'horse.blend'
# www.blender.org
mtllib roof.mtl
o Plane.013_Plane.009
v -6.471363 6.584965 6.471365
v 6.471364 6.578221 6.471364
v -6.471364 6.584965 -6.471364
v 6.471363 6.584965 -6.471365
v -5.608514 6.584515 6.471365
v -4.745666 6.584065 6.471365
v -3.882818 6.583616 6.471365
v -3.019969 6.583167 6.471365
v -2.157120 6.582717 6.471365
v -1.294272 6.582267 6.471365
v -0.431424 6.581818 6.471365
v 0.431425 6.581368 6.471365
v 1.294273 6.580919 6.471365
v 2.157122 6.580469 6.471365
v 3.019970 6.580019 6.471365
v 3.882819 6.579570 6.471364
v 4.745667 6.579121 6.471364
v 5.608515 6.578671 6.471364
v 5.608514 6.584965 -6.471365
v 4.745666 6.584965 -6.471365
v 3.882817 6.584965 -6.471365
v 3.019969 6.584965 -6.471365
v 2.157120 6.584965 -6.471365
v 1.294272 6.584965 -6.471365
v 0.431423 6.584965 -6.471365
v -0.431425 6.584965 -6.471365
v -1.294273 6.584965 -6.471365
v -2.157122 6.584965 -6.471364
v -3.019970 6.584965 -6.471364
v -3.882819 6.584965 -6.471364
v -4.745667 6.584965 -6.471364
v -5.608515 6.584965 -6.471364
v -6.471364 6.584965 -5.475770
v -6.471364 6.584965 -4.480175
v -6.471364 6.584965 -3.484581
v -6.471364 6.584965 -2.488986
v -6.471364 6.584965 -1.493392
v -6.471364 6.584965 -0.497797
v -6.471364 6.584965 0.497798
v -6.471364 6.584965 1.493392
v -6.471364 6.584965 2.488987
v -6.471364 6.584965 3.484581
v -6.471364 6.584965 4.480176
v -6.471364 6.584965 5.475770
v 6.471364 6.578740 5.475770
v 6.471364 6.579259 4.480175
v 6.471364 6.579778 3.484581
v 6.471364 6.580296 2.488986
v 6.471364 6.580815 1.493392
v 6.471364 6.581334 0.497797
v 6.471364 6.581852 -0.497798
v 6.471364 6.582371 -1.493392
v 6.471364 6.582890 -2.488987
v 6.471363 6.583408 -3.484581
v 6.471363 6.583927 -4.480176
v 6.471363 6.584446 -5.475770
v -5.608514 6.584550 5.475770
v -5.608514 6.584584 4.480176
v -5.608514 6.584619 3.484581
v -5.608514 6.584653 2.488987
v -5.608514 6.584688 1.493392
v -5.608514 6.584723 0.497798
v -5.608514 6.584757 -0.497797
v -5.608514 6.584792 -1.493391
v -5.608514 6.584826 -2.488986
v -5.608514 6.584861 -3.484580
v -5.608515 6.584896 -4.480175
v -5.608515 6.584930 -5.475770
v -4.745666 6.584135 5.475770
v -4.745666 6.584204 4.480176
v -4.745666 6.584273 3.484581
v -4.745666 6.584342 2.488987
v -4.745666 6.584412 1.493392
v -4.745666 6.584481 0.497798
v -4.745666 6.584550 -0.497797
v -4.745667 6.584619 -1.493391
v -4.745667 6.584688 -2.488986
v -4.745667 6.584757 -3.484581
v -4.745667 6.584826 -4.480175
v -4.745667 6.584896 -5.475770
v -3.882818 6.583720 5.475770
v -3.882818 6.583824 4.480176
v -3.882818 6.583927 3.484581
v -3.882818 6.584031 2.488987
v -3.882818 6.584135 1.493392
v -3.882818 6.584239 0.497797
v -3.882818 6.584342 -0.497797
v -3.882818 6.584446 -1.493392
v -3.882818 6.584550 -2.488986
v -3.882818 6.584653 -3.484581
v -3.882819 6.584757 -4.480175
v -3.882819 6.584861 -5.475770
v -3.019969 6.583305 5.475770
v -3.019969 6.583443 4.480176
v -3.019969 6.583581 3.484581
v -3.019970 6.583720 2.488987
v -3.019970 6.583858 1.493392
v -3.019970 6.583996 0.497797
v -3.019970 6.584135 -0.497797
v -3.019970 6.584273 -1.493392
v -3.019970 6.584412 -2.488986
v -3.019970 6.584550 -3.484581
v -3.019970 6.584688 -4.480175
v -3.019970 6.584826 -5.475770
v -2.157120 6.582890 5.475770
v -2.157121 6.583063 4.480176
v -2.157121 6.583236 3.484581
v -2.157121 6.583408 2.488987
v -2.157121 6.583581 1.493392
v -2.157121 6.583755 0.497797
v -2.157121 6.583927 -0.497797
v -2.157122 6.584100 -1.493392
v -2.157122 6.584273 -2.488986
v -2.157122 6.584446 -3.484581
v -2.157122 6.584619 -4.480175
v -2.157122 6.584792 -5.475770
v -1.294272 6.582475 5.475770
v -1.294272 6.582682 4.480175
v -1.294272 6.582890 3.484581
v -1.294272 6.583097 2.488986
v -1.294272 6.583305 1.493392
v -1.294273 6.583512 0.497797
v -1.294273 6.583720 -0.497798
v -1.294273 6.583927 -1.493392
v -1.294273 6.584135 -2.488987
v -1.294273 6.584342 -3.484581
v -1.294273 6.584550 -4.480176
v -1.294273 6.584757 -5.475770
v -0.431424 6.582060 5.475770
v -0.431424 6.582302 4.480175
v -0.431424 6.582544 3.484581
v -0.431424 6.582786 2.488986
v -0.431424 6.583028 1.493392
v -0.431424 6.583270 0.497797
v -0.431424 6.583512 -0.497798
v -0.431424 6.583755 -1.493392
v -0.431425 6.583996 -2.488987
v -0.431425 6.584239 -3.484581
v -0.431425 6.584481 -4.480176
v -0.431425 6.584723 -5.475770
v 0.431425 6.581645 5.475770
v 0.431425 6.581922 4.480175
v 0.431425 6.582198 3.484581
v 0.431424 6.582475 2.488986
v 0.431424 6.582752 1.493392
v 0.431424 6.583028 0.497797
v 0.431424 6.583305 -0.497798
v 0.431424 6.583581 -1.493392
v 0.431424 6.583858 -2.488987
v 0.431424 6.584135 -3.484581
v 0.431424 6.584412 -4.480176
v 0.431424 6.584688 -5.475770
v 1.294273 6.581230 5.475770
v 1.294273 6.581541 4.480175
v 1.294273 6.581852 3.484581
v 1.294273 6.582164 2.488986
v 1.294273 6.582475 1.493392
v 1.294273 6.582786 0.497797
v 1.294273 6.583097 -0.497798
v 1.294273 6.583408 -1.493392
v 1.294272 6.583720 -2.488987
v 1.294272 6.584031 -3.484581
v 1.294272 6.584342 -4.480176
v 1.294272 6.584653 -5.475770
v 2.157122 6.580815 5.475770
v 2.157121 6.581161 4.480175
v 2.157121 6.581507 3.484581
v 2.157121 6.581852 2.488986
v 2.157121 6.582198 1.493392
v 2.157121 6.582544 0.497797
v 2.157121 6.582890 -0.497798
v 2.157121 6.583236 -1.493392
v 2.157121 6.583581 -2.488987
v 2.157121 6.583927 -3.484581
v 2.157120 6.584273 -4.480176
v 2.157120 6.584619 -5.475770
v 3.019970 6.580400 5.475770
v 3.019970 6.580781 4.480175
v 3.019970 6.581161 3.484581
v 3.019969 6.581541 2.488986
v 3.019969 6.581922 1.493392
v 3.019969 6.582302 0.497797
v 3.019969 6.582682 -0.497798
v 3.019969 6.583063 -1.493392
v 3.019969 6.583443 -2.488987
v 3.019969 6.583824 -3.484581
v 3.019969 6.584204 -4.480176
v 3.019969 6.584584 -5.475770
v 3.882819 6.579985 5.475770
v 3.882819 6.580400 4.480175
v 3.882819 6.580815 3.484581
v 3.882819 6.581230 2.488986
v 3.882819 6.581645 1.493392
v 3.882819 6.582060 0.497797
v 3.882818 6.582475 -0.497798
v 3.882818 6.582890 -1.493392
v 3.882818 6.583305 -2.488987
v 3.882818 6.583720 -3.484581
v 3.882818 6.584135 -4.480176
v 3.882817 6.584550 -5.475770
v 4.745667 6.579570 5.475770
v 4.745667 6.580019 4.480175
v 4.745667 6.580469 3.484581
v 4.745667 6.580919 2.488986
v 4.745667 6.581368 1.493392
v 4.745667 6.581818 0.497797
v 4.745667 6.582267 -0.497798
v 4.745667 6.582717 -1.493392
v 4.745667 6.583167 -2.488987
v 4.745666 6.583616 -3.484581
v 4.745666 6.584065 -4.480176
v 4.745666 6.584515 -5.475770
v 5.608515 6.579155 5.475770
v 5.608515 6.579639 4.480175
v 5.608515 6.580123 3.484581
v 5.608515 6.580607 2.488986
v 5.608515 6.581091 1.493392
v 5.608515 6.581576 0.497797
v 5.608515 6.582060 -0.497798
v 5.608515 6.582544 -1.493392
v 5.608515 6.583028 -2.488987
v 5.608515 6.583512 -3.484581
v 5.608515 6.583996 -4.480176
v 5.608514 6.584481 -5.475770
vt 0.700000 0.923077
vt 0.750000 1.000000
vt 0.700000 1.000000
vt 0.050000 0.923077
vt 0.000000 1.000000
vt 0.000000 0.923077
vt 0.100000 0.923077
vt 0.050000 1.000000
vt 0.150000 0.923077
vt 0.100000 1.000000
vt 0.200000 0.923077
vt 0.150000 1.000000
vt 0.250000 1.000000
vt 0.200000 1.000000
vt 0.300000 0.923077
vt 0.250000 0.923077
vt 0.350000 1.000000
vt 0.300000 1.000000
vt 0.350000 0.923077
vt 0.400000 1.000000
vt 0.400000 0.923077
vt 0.450000 1.000000
vt 0.450000 0.923077
vt 0.500000 1.000000
vt 0.500000 0.923077
vt 0.550000 1.000000
vt 0.600000 0.923077
vt 0.550000 0.923077
vt 0.650000 1.000000
vt 0.600000 1.000000
vt 0.650000 0.923077
vt 0.650000 0.000000
vt 0.700000 0.076923
vt 0.650000 0.076923
vt 0.700000 0.153846
vt 0.650000 0.153846
vt 0.700000 0.230769
vt 0.650000 0.230769
vt 0.700000 0.307692
vt 0.650000 0.307692
vt 0.700000 0.384615
vt 0.650000 0.384615
vt 0.700000 0.461538
vt 0.650000 0.461538
vt 0.700000 0.538462
vt 0.650000 0.538462
vt 0.700000 0.615385
vt 0.650000 0.615385
vt 0.700000 0.692308
vt 0.650000 0.692308
vt 0.700000 0.769231
vt 0.650000 0.769231
vt 0.700000 0.846154
vt 0.650000 0.846154
vt 0.600000 0.000000
vt 0.600000 0.076923
vt 0.600000 0.153846
vt 0.600000 0.230769
vt 0.600000 0.307692
vt 0.600000 0.384615
vt 0.600000 0.461538
vt 0.600000 0.538462
vt 0.600000 0.615385
vt 0.600000 0.692308
vt 0.600000 0.769231
vt 0.600000 0.846154
vt 0.550000 0.000000
vt 0.550000 0.076923
vt 0.550000 0.153846
vt 0.550000 0.230769
vt 0.550000 0.307692
vt 0.550000 0.384615
vt 0.550000 0.461538
vt 0.550000 0.538462
vt 0.550000 0.615385
vt 0.550000 0.692308
vt 0.550000 0.769231
vt 0.550000 0.846154
vt 0.500000 0.000000
vt 0.500000 0.076923
vt 0.500000 0.153846
vt 0.500000 0.230769
vt 0.500000 0.307692
vt 0.500000 0.384615
vt 0.500000 0.461538
vt 0.500000 0.538462
vt 0.500000 0.615385
vt 0.500000 0.692308
vt 0.500000 0.769231
vt 0.500000 0.846154
vt 0.450000 0.000000
vt 0.450000 0.076923
vt 0.450000 0.153846
vt 0.450000 0.230769
vt 0.450000 0.307692
vt 0.450000 0.384615
vt 0.450000 0.461538
vt 0.450000 0.538462
vt 0.450000 0.615385
vt 0.450000 0.692308
vt 0.450000 0.769231
vt 0.450000 0.846154
vt 0.400000 0.000000
vt 0.400000 0.076923
vt 0.400000 0.153846
vt 0.400000 0.230769
vt 0.400000 0.307692
vt 0.400000 0.384615
vt 0.400000 0.461538
vt 0.400000 0.538462
vt 0.400000 0.615385
vt 0.400000 0.692308
vt 0.400000 0.769231
vt 0.400000 0.846154
vt 0.350000 0.000000
vt 0.350000 0.076923
vt 0.350000 0.153846
vt 0.350000 0.230769
vt 0.350000 0.307692
vt 0.350000 0.384615
vt 0.350000 0.461538
vt 0.350000 0.538462
vt 0.350000 0.615385
vt 0.350000 0.692308
vt 0.350000 0.769231
vt 0.350000 0.846154
vt 0.300000 0.000000
vt 0.300000 0.076923
vt 0.300000 0.153846
vt 0.300000 0.230769
vt 0.300000 0.307692
vt 0.300000 0.384615
vt 0.300000 0.461538
vt 0.300000 0.538462
vt 0.300000 0.615385
vt 0.300000 0.692308
vt 0.300000 0.769231
vt 0.300000 0.846154
vt 0.250000 0.000000
vt 0.250000 0.076923
vt 0.250000 0.153846
vt 0.250000 0.230769
vt 0.250000 0.307692
vt 0.250000 0.384615
vt 0.250000 0.461538
vt 0.250000 0.538462
vt 0.250000 0.615385
vt 0.250000 0.692308
vt 0.250000 0.769231
vt 0.250000 0.846154
vt 0.200000 0.000000
vt 0.200000 0.076923
vt 0.200000 0.153846
vt 0.200000 0.230769
vt 0.200000 0.307692
vt 0.200000 0.384615
vt 0.200000 0.461538
vt 0.200000 0.538462
vt 0.200000 0.615385
vt 0.200000 0.692308
vt 0.200000 0.769231
vt 0.200000 0.846154
vt 0.150000 0.000000
vt 0.150000 0.076923
vt 0.150000 0.153846
vt 0.150000 0.230769
vt 0.150000 0.307692
vt 0.150000 0.384615
vt 0.150000 0.461538
vt 0.150000 0.538462
vt 0.150000 0.615385
vt 0.150000 0.692308
vt 0.150000 0.769231
vt 0.150000 0.846154
vt 0.100000 0.000000
vt 0.100000 0.076923
vt 0.100000 0.153846
vt 0.100000 0.230769
vt 0.100000 0.307692
vt 0.100000 0.384615
vt 0.100000 0.461539
vt 0.100000 0.538462
vt 0.100000 0.615385
vt 0.100000 0.692308
vt 0.100000 0.769231
vt 0.100000 0.846154
vt 0.050000 0.000000
vt 0.050000 0.076923
vt 0.050000 0.153846
vt 0.050000 0.230769
vt 0.050000 0.307692
vt 0.050000 0.384615
vt 0.050000 0.461539
vt 0.050000 0.538462
vt 0.050000 0.615385
vt 0.050000 0.692308
vt 0.050000 0.769231
vt 0.050000 0.846154
vt 0.000000 0.000000
vt 0.000000 0.076923
vt 0.000000 0.153846
vt 0.000000 0.230769
vt 0.000000 0.307692
vt 0.000000 0.384615
vt 0.000000 0.461538
vt 0.000000 0.538462
vt 0.000000 0.615385
vt 0.000000 0.692308
vt 0.000000 0.769231
vt 0.000000 0.846154
vt 0.700000 0.000000
vt 0.750000 0.076923
vt 0.750000 0.153846
vt 0.750000 0.230769
vt 0.750000 0.307692
vt 0.750000 0.384615
vt 0.750000 0.461538
vt 0.750000 0.538462
vt 0.750000 0.615385
vt 0.750000 0.692308
vt 0.750000 0.769231
vt 0.750000 0.846154
vt 0.750000 0.923077
vt 0.750000 0.000000
vn 0.0000 1.0000 0.0005
vn 0.0000 1.0000 0.0000
vn 0.0000 1.0000 0.0001
vn 0.0000 1.0000 0.0002
vn 0.0000 1.0000 0.0003
vn 0.0000 1.0000 0.0004
vn 0.0005 1.0000 0.0005
vn 0.0004 1.0000 0.0005
vn 0.0003 1.0000 0.0005
vn 0.0002 1.0000 0.0005
vn 0.0001 1.0000 0.0005
vn 0.0005 1.0000 0.0004
vn 0.0004 1.0000 0.0004
vn 0.0003 1.0000 0.0004
vn 0.0002 1.0000 0.0004
vn 0.0001 1.0000 0.0004
vn 0.0005 1.0000 0.0003
vn 0.0004 1.0000 0.0003
vn 0.0003 1.0000 0.0003
vn 0.0002 1.0000 0.0003
vn 0.0001 1.0000 0.0003
vn 0.0005 1.0000 0.0002
vn 0.0004 1.0000 0.0002
vn 0.0003 1.0000 0.0002
vn 0.0002 1.0000 0.0002
vn 0.0001 1.0000 0.0002
vn 0.0005 1.0000 0.0001
vn 0.0004 1.0000 0.0001
vn 0.0003 1.0000 0.0001
vn 0.0002 1.0000 0.0001
vn 0.0001 1.0000 0.0001
vn 0.0005 1.0000 0.0000
vn 0.0004 1.0000 0.0000
vn 0.0003 1.0000 0.0000
vn 0.0002 1.0000 0.0000
vn 0.0001 1.0000 0.0000
usemtl Material.018
s off
f 224/1/1 4/2/1 19/3/1
f 68/4/2 3/5/2 33/6/2
f 80/7/2 32/8/2 68/4/2
f 92/9/3 31/10/3 80/7/3
f 104/11/3 30/12/3 92/9/3
f 104/11/3 28/13/3 29/14/3
f 128/15/4 28/13/4 116/16/4
f 128/15/4 26/17/4 27/18/4
f 140/19/4 25/20/4 26/17/4
f 152/21/5 24/22/5 25/20/5
f 164/23/5 23/24/5 24/22/5
f 176/25/5 22/26/5 23/24/5
f 200/27/6 22/26/6 188/28/6
f 200/27/6 20/29/6 21/30/6
f 212/31/1 19/3/1 20/29/1
f 17/32/7 213/33/7 201/34/7
f 201/34/8 214/35/8 202/36/8
f 202/36/8 215/37/8 203/38/8
f 203/38/8 216/39/8 204/40/8
f 204/40/9 217/41/9 205/42/9
f 205/42/9 218/43/9 206/44/9
f 206/44/10 219/45/10 207/46/10
f 207/46/10 220/47/10 208/48/10
f 208/48/10 221/49/10 209/50/10
f 209/50/11 222/51/11 210/52/11
f 210/52/11 223/53/11 211/54/11
f 211/54/1 224/1/1 212/31/1
f 16/55/12 201/34/12 189/56/12
f 189/56/13 202/36/13 190/57/13
f 190/57/13 203/38/13 191/58/13
f 191/58/13 204/40/13 192/59/13
f 192/59/14 205/42/14 193/60/14
f 193/60/14 206/44/14 194/61/14
f 194/61/15 207/46/15 195/62/15
f 195/62/15 208/48/15 196/63/15
f 196/63/15 209/50/15 197/64/15
f 197/64/16 210/52/16 198/65/16
f 198/65/16 211/54/16 199/66/16
f 199/66/6 212/31/6 200/27/6
f 15/67/12 189/56/12 177/68/12
f 177/68/13 190/57/13 178/69/13
f 178/69/13 191/58/13 179/70/13
f 179/70/13 192/59/13 180/71/13
f 180/71/14 193/60/14 181/72/14
f 181/72/14 194/61/14 182/73/14
f 182/73/15 195/62/15 183/74/15
f 183/74/15 196/63/15 184/75/15
f 184/75/15 197/64/15 185/76/15
f 185/76/16 198/65/16 186/77/16
f 186/77/16 199/66/16 187/78/16
f 187/78/6 200/27/6 188/28/6
f 14/79/17 177/68/17 165/80/17
f 165/80/18 178/69/18 166/81/18
f 166/81/18 179/70/18 167/82/18
f 167/82/18 180/71/18 168/83/18
f 168/83/19 181/72/19 169/84/19
f 169/84/19 182/73/19 170/85/19
f 170/85/20 183/74/20 171/86/20
f 171/86/20 184/75/20 172/87/20
f 172/87/20 185/76/20 173/88/20
f 173/88/21 186/77/21 174/89/21
f 174/89/21 187/78/21 175/90/21
f 175/90/5 188/28/5 176/25/5
f 13/91/17 165/80/17 153/92/17
f 153/92/18 166/81/18 154/93/18
f 154/93/18 167/82/18 155/94/18
f 155/94/18 168/83/18 156/95/18
f 156/95/19 169/84/19 157/96/19
f 157/96/19 170/85/19 158/97/19
f 158/97/20 171/86/20 159/98/20
f 159/98/20 172/87/20 160/99/20
f 160/99/20 173/88/20 161/100/20
f 161/100/21 174/89/21 162/101/21
f 162/101/21 175/90/21 163/102/21
f 163/102/5 176/25/5 164/23/5
f 12/103/17 153/92/17 141/104/17
f 141/104/18 154/93/18 142/105/18
f 142/105/18 155/94/18 143/106/18
f 143/106/18 156/95/18 144/107/18
f 144/107/19 157/96/19 145/108/19
f 145/108/19 158/97/19 146/109/19
f 146/109/20 159/98/20 147/110/20
f 147/110/20 160/99/20 148/111/20
f 148/111/20 161/100/20 149/112/20
f 149/112/21 162/101/21 150/113/21
f 150/113/21 163/102/21 151/114/21
f 151/114/5 164/23/5 152/21/5
f 11/115/22 141/104/22 129/116/22
f 129/116/23 142/105/23 130/117/23
f 130/117/23 143/106/23 131/118/23
f 131/118/23 144/107/23 132/119/23
f 132/119/24 145/108/24 133/120/24
f 133/120/24 146/109/24 134/121/24
f 134/121/25 147/110/25 135/122/25
f 135/122/25 148/111/25 136/123/25
f 136/123/25 149/112/25 137/124/25
f 137/124/26 150/113/26 138/125/26
f 138/125/26 151/114/26 139/126/26
f 139/126/4 152/21/4 140/19/4
f 10/127/22 129/116/22 117/128/22
f 117/128/23 130/117/23 118/129/23
f 118/129/23 131/118/23 119/130/23
f 119/130/23 132/119/23 120/131/23
f 120/131/24 133/120/24 121/132/24
f 121/132/24 134/121/24 122/133/24
f 122/133/25 135/122/25 123/134/25
f 123/134/25 136/123/25 124/135/25
f 124/135/25 137/124/25 125/136/25
f 125/136/26 138/125/26 126/137/26
f 126/137/26 139/126/26 127/138/26
f 127/138/4 140/19/4 128/15/4
f 9/139/22 117/128/22 105/140/22
f 105/140/23 118/129/23 106/141/23
f 106/141/23 119/130/23 107/142/23
f 107/142/23 120/131/23 108/143/23
f 108/143/24 121/132/24 109/144/24
f 109/144/24 122/133/24 110/145/24
f 110/145/25 123/134/25 111/146/25
f 111/146/25 124/135/25 112/147/25
f 112/147/25 125/136/25 113/148/25
f 113/148/26 126/137/26 114/149/26
f 126/137/26 115/150/26 114/149/26
f 115/150/4 128/15/4 116/16/4
f 8/151/27 105/140/27 93/152/27
f 93/152/28 106/141/28 94/153/28
f 94/153/28 107/142/28 95/154/28
f 95/154/28 108/143/28 96/155/28
f 96/155/29 109/144/29 97/156/29
f 97/156/29 110/145/29 98/157/29
f 98/157/30 111/146/30 99/158/30
f 99/158/30 112/147/30 100/159/30
f 100/159/30 113/148/30 101/160/30
f 101/160/31 114/149/31 102/161/31
f 102/161/31 115/150/31 103/162/31
f 103/162/3 116/16/3 104/11/3
f 7/163/27 93/152/27 81/164/27
f 81/164/28 94/153/28 82/165/28
f 82/165/28 95/154/28 83/166/28
f 83/166/28 96/155/28 84/167/28
f 84/167/29 97/156/29 85/168/29
f 85/168/29 98/157/29 86/169/29
f 86/169/30 99/158/30 87/170/30
f 87/170/30 100/159/30 88/171/30
f 88/171/30 101/160/30 89/172/30
f 89/172/31 102/161/31 90/173/31
f 102/161/31 91/174/31 90/173/31
f 91/174/3 104/11/3 92/9/3
f 6/175/27 81/164/27 69/176/27
f 69/176/28 82/165/28 70/177/28
f 70/177/28 83/166/28 71/178/28
f 71/178/28 84/167/28 72/179/28
f 72/179/29 85/168/29 73/180/29
f 73/180/29 86/169/29 74/181/29
f 74/181/30 87/170/30 75/182/30
f 75/182/30 88/171/30 76/183/30
f 88/171/30 77/184/30 76/183/30
f 89/172/30 78/185/30 77/184/30
f 78/185/31 91/174/31 79/186/31
f 91/174/31 80/7/31 79/186/31
f 5/187/32 69/176/32 57/188/32
f 57/188/33 70/177/33 58/189/33
f 58/189/33 71/178/33 59/190/33
f 71/178/33 60/191/33 59/190/33
f 60/191/34 73/180/34 61/192/34
f 61/192/34 74/181/34 62/193/34
f 62/193/35 75/182/35 63/194/35
f 63/194/35 76/183/35 64/195/35
f 64/195/35 77/184/35 65/196/35
f 77/184/35 66/197/35 65/196/35
f 66/197/36 79/186/36 67/198/36
f 67/198/2 80/7/2 68/4/2
f 1/199/32 57/188/32 44/200/32
f 44/200/33 58/189/33 43/201/33
f 58/189/33 42/202/33 43/201/33
f 42/202/33 60/191/33 41/203/33
f 41/203/34 61/192/34 40/204/34
f 61/192/34 39/205/34 40/204/34
f 39/205/35 63/194/35 38/206/35
f 38/206/35 64/195/35 37/207/35
f 64/195/35 36/208/35 37/207/35
f 36/208/36 66/197/36 35/209/36
f 35/209/36 67/198/36 34/210/36
f 67/198/36 33/6/36 34/210/36
f 18/211/7 45/212/7 213/33/7
f 213/33/8 46/213/8 214/35/8
f 214/35/8 47/214/8 215/37/8
f 215/37/8 48/215/8 216/39/8
f 216/39/9 49/216/9 217/41/9
f 217/41/9 50/217/9 218/43/9
f 218/43/10 51/218/10 219/45/10
f 219/45/10 52/219/10 220/47/10
f 220/47/10 53/220/10 221/49/10
f 221/49/11 54/221/11 222/51/11
f 222/51/11 55/222/11 223/53/11
f 223/53/1 56/223/1 224/1/1
f 224/1/1 56/223/1 4/2/1
f 68/4/2 32/8/2 3/5/2
f 80/7/3 31/10/3 32/8/3
f 92/9/3 30/12/3 31/10/3
f 104/11/3 29/14/3 30/12/3
f 104/11/4 116/16/4 28/13/4
f 128/15/4 27/18/4 28/13/4
f 128/15/4 140/19/4 26/17/4
f 140/19/5 152/21/5 25/20/5
f 152/21/5 164/23/5 24/22/5
f 164/23/5 176/25/5 23/24/5
f 176/25/6 188/28/6 22/26/6
f 200/27/6 21/30/6 22/26/6
f 200/27/1 212/31/1 20/29/1
f 212/31/1 224/1/1 19/3/1
f 17/32/7 18/211/7 213/33/7
f 201/34/7 213/33/7 214/35/7
f 202/36/8 214/35/8 215/37/8
f 203/38/8 215/37/8 216/39/8
f 204/40/8 216/39/8 217/41/8
f 205/42/9 217/41/9 218/43/9
f 206/44/9 218/43/9 219/45/9
f 207/46/10 219/45/10 220/47/10
f 208/48/10 220/47/10 221/49/10
f 209/50/10 221/49/10 222/51/10
f 210/52/11 222/51/11 223/53/11
f 211/54/11 223/53/11 224/1/11
f 16/55/7 17/32/7 201/34/7
f 189/56/7 201/34/7 202/36/7
f 190/57/8 202/36/8 203/38/8
f 191/58/8 203/38/8 204/40/8
f 192/59/8 204/40/8 205/42/8
f 193/60/9 205/42/9 206/44/9
f 194/61/9 206/44/9 207/46/9
f 195/62/10 207/46/10 208/48/10
f 196/63/10 208/48/10 209/50/10
f 197/64/10 209/50/10 210/52/10
f 198/65/11 210/52/11 211/54/11
f 199/66/11 211/54/11 212/31/11
f 15/67/12 16/55/12 189/56/12
f 177/68/12 189/56/12 190/57/12
f 178/69/13 190/57/13 191/58/13
f 179/70/13 191/58/13 192/59/13
f 180/71/13 192/59/13 193/60/13
f 181/72/14 193/60/14 194/61/14
f 182/73/14 194/61/14 195/62/14
f 183/74/15 195/62/15 196/63/15
f 184/75/15 196/63/15 197/64/15
f 185/76/15 197/64/15 198/65/15
f 186/77/16 198/65/16 199/66/16
f 187/78/16 199/66/16 200/27/16
f 14/79/12 15/67/12 177/68/12
f 165/80/12 177/68/12 178/69/12
f 166/81/13 178/69/13 179/70/13
f 167/82/13 179/70/13 180/71/13
f 168/83/13 180/71/13 181/72/13
f 169/84/14 181/72/14 182/73/14
f 170/85/14 182/73/14 183/74/14
f 171/86/15 183/74/15 184/75/15
f 172/87/15 184/75/15 185/76/15
f 173/88/15 185/76/15 186/77/15
f 174/89/16 186/77/16 187/78/16
f 175/90/16 187/78/16 188/28/16
f 13/91/17 14/79/17 165/80/17
f 153/92/17 165/80/17 166/81/17
f 154/93/18 166/81/18 167/82/18
f 155/94/18 167/82/18 168/83/18
f 156/95/18 168/83/18 169/84/18
f 157/96/19 169/84/19 170/85/19
f 158/97/19 170/85/19 171/86/19
f 159/98/20 171/86/20 172/87/20
f 160/99/20 172/87/20 173/88/20
f 161/100/20 173/88/20 174/89/20
f 162/101/21 174/89/21 175/90/21
f 163/102/21 175/90/21 176/25/21
f 12/103/17 13/91/17 153/92/17
f 141/104/17 153/92/17 154/93/17
f 142/105/18 154/93/18 155/94/18
f 143/106/18 155/94/18 156/95/18
f 144/107/18 156/95/18 157/96/18
f 145/108/19 157/96/19 158/97/19
f 146/109/19 158/97/19 159/98/19
f 147/110/20 159/98/20 160/99/20
f 148/111/20 160/99/20 161/100/20
f 149/112/20 161/100/20 162/101/20
f 150/113/21 162/101/21 163/102/21
f 151/114/21 163/102/21 164/23/21
f 11/115/17 12/103/17 141/104/17
f 129/116/17 141/104/17 142/105/17
f 130/117/18 142/105/18 143/106/18
f 131/118/18 143/106/18 144/107/18
f 132/119/18 144/107/18 145/108/18
f 133/120/19 145/108/19 146/109/19
f 134/121/19 146/109/19 147/110/19
f 135/122/20 147/110/20 148/111/20
f 136/123/20 148/111/20 149/112/20
f 137/124/20 149/112/20 150/113/20
f 138/125/21 150/113/21 151/114/21
f 139/126/21 151/114/21 152/21/21
f 10/127/22 11/115/22 129/116/22
f 117/128/22 129/116/22 130/117/22
f 118/129/23 130/117/23 131/118/23
f 119/130/23 131/118/23 132/119/23
f 120/131/23 132/119/23 133/120/23
f 121/132/24 133/120/24 134/121/24
f 122/133/24 134/121/24 135/122/24
f 123/134/25 135/122/25 136/123/25
f 124/135/25 136/123/25 137/124/25
f 125/136/25 137/124/25 138/125/25
f 126/137/26 138/125/26 139/126/26
f 127/138/26 139/126/26 140/19/26
f 9/139/22 10/127/22 117/128/22
f 105/140/22 117/128/22 118/129/22
f 106/141/23 118/129/23 119/130/23
f 107/142/23 119/130/23 120/131/23
f 108/143/23 120/131/23 121/132/23
f 109/144/24 121/132/24 122/133/24
f 110/145/24 122/133/24 123/134/24
f 111/146/25 123/134/25 124/135/25
f 112/147/25 124/135/25 125/136/25
f 113/148/25 125/136/25 126/137/25
f 126/137/26 127/138/26 115/150/26
f 115/150/26 127/138/26 128/15/26
f 8/151/22 9/139/22 105/140/22
f 93/152/22 105/140/22 106/141/22
f 94/153/23 106/141/23 107/142/23
f 95/154/23 107/142/23 108/143/23
f 96/155/23 108/143/23 109/144/23
f 97/156/24 109/144/24 110/145/24
f 98/157/24 110/145/24 111/146/24
f 99/158/25 111/146/25 112/147/25
f 100/159/25 112/147/25 113/148/25
f 101/160/25 113/148/25 114/149/25
f 102/161/26 114/149/26 115/150/26
f 103/162/26 115/150/26 116/16/26
f 7/163/27 8/151/27 93/152/27
f 81/164/27 93/152/27 94/153/27
f 82/165/28 94/153/28 95/154/28
f 83/166/28 95/154/28 96/155/28
f 84/167/28 96/155/28 97/156/28
f 85/168/29 97/156/29 98/157/29
f 86/169/29 98/157/29 99/158/29
f 87/170/30 99/158/30 100/159/30
f 88/171/30 100/159/30 101/160/30
f 89/172/30 101/160/30 102/161/30
f 102/161/31 103/162/31 91/174/31
f 91/174/31 103/162/31 104/11/31
f 6/175/27 7/163/27 81/164/27
f 69/176/27 81/164/27 82/165/27
f 70/177/28 82/165/28 83/166/28
f 71/178/28 83/166/28 84/167/28
f 72/179/28 84/167/28 85/168/28
f 73/180/29 85/168/29 86/169/29
f 74/181/29 86/169/29 87/170/29
f 75/182/30 87/170/30 88/171/30
f 88/171/30 89/172/30 77/184/30
f 89/172/31 90/173/31 78/185/31
f 78/185/31 90/173/31 91/174/31
f 91/174/3 92/9/3 80/7/3
f 5/187/27 6/175/27 69/176/27
f 57/188/27 69/176/27 70/177/27
f 58/189/28 70/177/28 71/178/28
f 71/178/28 72/179/28 60/191/28
f 60/191/28 72/179/28 73/180/28
f 61/192/29 73/180/29 74/181/29
f 62/193/29 74/181/29 75/182/29
f 63/194/30 75/182/30 76/183/30
f 64/195/30 76/183/30 77/184/30
f 77/184/31 78/185/31 66/197/31
f 66/197/31 78/185/31 79/186/31
f 67/198/31 79/186/31 80/7/31
f 1/199/32 5/187/32 57/188/32
f 44/200/32 57/188/32 58/189/32
f 58/189/33 59/190/33 42/202/33
f 42/202/33 59/190/33 60/191/33
f 41/203/33 60/191/33 61/192/33
f 61/192/34 62/193/34 39/205/34
f 39/205/34 62/193/34 63/194/34
f 38/206/35 63/194/35 64/195/35
f 64/195/35 65/196/35 36/208/35
f 36/208/35 65/196/35 66/197/35
f 35/209/36 66/197/36 67/198/36
f 67/198/2 68/4/2 33/6/2
f 18/211/7 2/224/7 45/212/7
f 213/33/7 45/212/7 46/213/7
f 214/35/8 46/213/8 47/214/8
f 215/37/8 47/214/8 48/215/8
f 216/39/8 48/215/8 49/216/8
f 217/41/9 49/216/9 50/217/9
f 218/43/9 50/217/9 51/218/9
f 219/45/10 51/218/10 52/219/10
f 220/47/10 52/219/10 53/220/10
f 221/49/10 53/220/10 54/221/10
f 222/51/11 54/221/11 55/222/11
f 223/53/11 55/222/11 56/223/11
