# Blender v2.82 (sub 7) OBJ File: ''
# www.blender.org
mtllib chao.mtl
o Cube
v 12.410742 1.000000 -1.000000
v 12.410742 -1.000000 -1.000000
v 12.410742 1.000000 1.000000
v 12.410742 -1.000000 1.000000
v -1.000000 1.000000 -1.000000
v -1.000000 -1.000000 -1.000000
v -1.000000 1.000000 1.000000
v -1.000000 -1.000000 1.000000
vt 0.000000 0.916667
vt 0.996875 0.988889
vt 0.984375 0.922222
vt -0.001563 0.988889
vt 0.992188 0.005556
vt -0.001562 0.002778
vt 0.004688 0.988023
vt 0.993750 0.008333
vt -0.001563 0.010245
vt 0.337500 0.000000
vt 0.450000 1.000000
vt 0.337500 1.000000
vt 0.012500 0.973268
vt 0.985938 0.015801
vt 0.004687 0.023268
vt 0.000000 1.000000
vt 0.998437 0.005556
vt -0.003125 0.000000
vt 0.001563 0.991667
vt 0.993750 0.994444
vt 0.993750 0.963889
vt 0.450000 0.000000
vt 0.982813 0.974134
vt 0.996875 1.002778
vn 0.0000 1.0000 0.0000
vn 0.0000 0.0000 1.0000
vn -1.0000 0.0000 0.0000
vn 0.0000 -1.0000 0.0000
vn 1.0000 0.0000 0.0000
vn 0.0000 0.0000 -1.0000
usemtl Material
s off
f 5/1/1 3/2/1 1/3/1
f 3/4/2 8/5/2 4/6/2
f 7/7/3 6/8/3 8/9/3
f 2/10/4 8/11/4 6/12/4
f 1/13/5 4/14/5 2/15/5
f 5/16/6 2/17/6 6/18/6
f 5/1/1 7/19/1 3/2/1
f 3/4/2 7/20/2 8/5/2
f 7/7/3 5/21/3 6/8/3
f 2/10/4 4/22/4 8/11/4
f 1/13/5 3/23/5 4/14/5
f 5/16/6 1/24/6 2/17/6
